<?xml version="1.0" encoding="utf-8"?>
<!-- Generator: Adobe Illustrator 19.0.1, SVG Export Plug-In . SVG Version: 6.00 Build 0)  -->
<svg version="1.1" id="Слой_1" xmlns="http://www.w3.org/2000/svg" xmlns:xlink="http://www.w3.org/1999/xlink" x="0px" y="0px"
	 viewBox="200 0 960 560" style="enable-background:new 200 0 960 560;" xml:space="preserve">
<style type="text/css">
	.st0{display:none;}
	.st1{display:inline;}
	.st2{fill:#FFFFFF;}
</style>
<g id="Слой_5" class="st0">
	<rect x="191.9" y="-5.2" class="st1" width="981.6" height="574.3"/>
</g>
<g id="Слой_3">
	<g transform="translate(0.000000,241.000000) scale(0.100000,-0.100000)">
		<path id="node1_2_" class="st2" d="M7712.2,1917.1c-36.6-49.9-36.6-128,0-168c21.6-24.9,23.3-39.9,10-88.1
			c-10-31.6-13.3-74.8-8.3-94.8c10-38.2,68.2-148,86.5-163c53.2-43.2,201.2-337.6,179.6-357.5c-3.3-5-29.9,1.7-56.5,15
			s-109.8,33.3-186.2,41.6c-76.5,10-166.3,24.9-199.5,34.9c-74.8,20-169.6,76.5-169.6,99.8c0,8.3-15,16.6-33.3,16.6
			c-103.1,0,33.3-121.4,187.9-168c64.9-20,121.4-38.2,124.7-39.9c1.7-1.7-49.9-56.5-116.4-123.1c-98.1-96.4-138-123.1-212.9-146.3
			c-49.9-15-98.1-33.3-108.1-41.6c-20-16.6,61.5-16.6,154.7,1.7c73.2,15,73.2,15,59.9-29.9c-16.6-64.9-10-119.7,21.6-154.7
			c34.9-39.9,46.6-38.2,68.2,11.6c29.9,64.9,23.3,103.1-21.6,138c-53.2,41.6-51.6,53.2,5,104.8c24.9,23.3,73.2,73.2,109.8,111.4
			c73.2,79.8,171.3,116.4,227.8,86.5c154.7-83.1,202.9-226.2,129.7-377.5C7920,533.5,7840.2,492,7644,462
			c-191.2-29.9-365.8-111.4-449-209.5c-33.3-38.2-59.9-74.8-59.9-83.1c0-39.9-29.9-3.3-54.9,66.5c-38.2,104.8-128,191.2-299.3,287.7
			c-168,94.8-237.8,179.6-221.2,269.4c15,78.2,74.8,164.6,134.7,194.6c206.2,104.8,292.7,196.2,314.3,332.6
			c15,98.1,31.6,114.7,108.1,104.8c44.9-6.7,69.8,0,91.5,20c64.9,64.9-24.9,99.8-106.4,41.6c-59.9-43.2-61.5-34.9-11.6,41.6
			c29.9,48.2,46.6,58.2,96.4,58.2c66.5,0,106.4,33.3,118.1,104.8c8.3,41.6,5,44.9-44.9,44.9c-56.5,0-124.7-56.5-124.7-104.8
			c0-23.3-58.2-78.2-84.8-78.2c-5,0-8.3,33.3-8.3,74.8c1.7,49.9-8.3,83.1-28.3,103.1c-29.9,28.3-31.6,28.3-54.9-1.7
			c-33.3-44.9-29.9-66.5,18.3-123.1c46.6-56.5,51.6-81.5,20-128c-13.3-18.3-36.6-78.2-53.2-133c-31.6-104.8-99.8-186.2-204.5-246.1
			l-53.2-29.9v79.8c0,136.4-26.6,197.9-134.7,304.3c-53.2,53.2-98.1,109.8-98.1,123.1c0,15-6.7,26.6-16.6,26.6
			c-28.3,0-18.3-96.4,18.3-166.3c20-36.6,41.6-66.5,49.9-66.5c28.3,0,114.7-138,114.7-181.3c0-24.9-18.3-76.5-41.6-118.1
			c-23.3-41.6-58.2-106.4-76.5-144.7c-18.3-39.9-36.6-71.5-39.9-71.5s-31.6,15-61.5,33.3c-31.6,18.3-108.1,38.2-172.9,44.9
			l-114.7,13.3l1.7,71.5c0,38.2,13.3,83.1,26.6,98.1c51.6,59.9,53.2,242.8,3.3,312.6c-33.3,44.9-44.9,21.6-26.6-48.2
			c10-34.9,11.6-59.9,1.7-59.9c-8.3,0-15,6.7-15,16.6c0,33.3-81.5,69.8-133,58.2c-59.9-13.3-61.5-23.3-15-73.2
			c31.6-33.3,46.6-36.6,108.1-26.6c71.5,10,73.2,10,73.2-36.6c1.7-53.2-99.8-269.4-126.4-271.1c-46.6-1.7-121.4,121.4-172.9,279.4
			c-28.3,93.1-48.2,128-78.2,141.3c-21.6,10-51.6,43.2-63.2,73.2c-26.6,64.9-118.1,111.4-181.3,94.8c-39.9-10-39.9-11.6-15-69.8
			c34.9-86.5,64.9-106.4,149.7-93.1c49.9,6.7,71.5,5,71.5-8.3c0-11.6,15-39.9,31.6-64.9c18.3-24.9,41.6-88.1,49.9-141.3
			c23.3-133,59.9-201.2,146.3-277.7c84.8-74.8,81.5-79.8-64.9-98.1c-46.6-5-88.1-18.3-91.5-28.3c-10-29.9,139.7-16.6,224.5,18.3
			c79.8,33.3,199.5,24.9,261.1-15c20-13.3,59.9-74.8,89.8-138c31.6-61.5,74.8-133,96.4-158c39.9-41.6,39.9-79.8,1.7-79.8
			c-10,0-59.9-36.6-113.1-83.1c-256.1-221.2-462.3-242.8-653.5-68.2c-93.1,86.5-136.4,191.2-121.4,297.7
			c33.3,229.5,33.3,249.4-13.3,344.2c-23.3,51.6-43.2,103.1-43.2,116.4c0,13.3-8.3,24.9-18.3,24.9c-24.9,0-6.7-101.4,34.9-192.9
			c18.3-43.2,24.9-78.2,15-91.5c-8.3-13.3-15-53.2-15-91.5c0-36.6-5-73.2-11.6-79.8c-6.7-5-41.6,21.6-78.2,59.9
			c-38.2,39.9-83.1,79.8-101.4,89.8c-29.9,16.6-31.6,23.3-10,74.8c38.2,99.8,39.9,134.7,10,192.9c-16.6,29.9-34.9,54.9-39.9,54.9
			s-26.6-24.9-48.2-54.9c-49.9-73.2-48.2-136.4,5-171.3c48.2-31.6,58.2-83.1,13.3-64.9c-16.6,6.7-44.9,16.6-63.2,21.6
			c-29.9,6.7-29.9,5,6.7-36.6c23.3-23.3,49.9-43.2,61.5-43.2c23.3,0,156.3-146.3,156.3-171.3c0-10,10-29.9,23.3-43.2
			c11.6-15,38.2-63.2,56.5-106.4c33.3-73.2,33.3-79.8,6.7-88.1c-15-5-71.5-28.3-123.1-51.6c-94.8-43.2-121.4-76.5-154.7-182.9
			c-13.3-48.2-61.5-49.9-124.7-3.3c-51.6,39.9-109.8,34.9-174.6-15L4911.8,33l68.2-46.6c38.2-24.9,73.2-46.6,79.8-46.6
			c5,0,33.3,20,61.5,43.2c31.6,26.6,64.9,39.9,83.1,34.9c33.3-8.3,86.5,39.9,138,121.4c26.6,41.6,176.3,133,219.5,133
			c13.3,0,41.6-21.6,63.2-48.2c49.9-63.2,181.3-163,254.4-194.6c31.6-13.3,58.2-29.9,58.2-36.6c0-28.3-94.8-103.1-174.6-138
			c-64.9-29.9-124.7-39.9-269.4-44.9c-159.6-6.7-187.9-11.6-187.9-34.9c0-20,20-28.3,86.5-31.6c48.2-3.3,93.1-13.3,98.1-23.3
			c6.7-11.6,15-11.6,21.6,1.7c6.7,10,53.2,18.3,103.1,18.3c88.1,0,91.5-1.7,81.5-36.6c-15-49.9-86.5-174.6-108.1-187.9
			c-8.3-5-24.9-24.9-34.9-44.9c-15-26.6-13.3-31.6,5-21.6c101.4,58.2,144.7,116.4,209.5,277.7c11.6,28.3,36.6,49.9,64.9,56.5
			c24.9,6.7,64.9,24.9,86.5,43.2c54.9,41.6,68.2,38.2,68.2-18.3c0-26.6,15-64.9,31.6-86.5l31.6-39.9l21.6,48.2
			c21.6,44.9,20,49.9-33.3,94.8l-56.5,46.6l51.6,64.9c39.9,49.9,84.8,78.2,197.9,124.7c161.3,66.5,327.6,111.4,425.7,111.4
			c128,0,239.5-81.5,286-214.5c33.3-96.4,31.6-138-10-234.5c-61.5-143-138-177.9-525.5-241.1c-199.5-31.6-306-74.8-434-169.6
			c-123.1-94.8-201.2-194.6-410.7-528.8c-231.1-369.2-251.1-384.1-389.1-291c-109.8,74.8-196.2,69.8-291-16.6
			c-66.5-61.5-79.8-66.5-168-66.5c-68.2,0-111.4-10-151.3-34.9c-31.6-18.3-56.5-39.9-56.5-46.6c0-11.6,229.5-66.5,339.2-79.8
			c34.9-5,94.8,1.7,129.7,13.3c59.9,20,78.2,18.3,169.6-15c126.4-44.9,176.3-44.9,342.6-1.7c149.7,38.2,194.6,31.6,382.5-54.9
			c154.7-73.2,312.6-74.8,470.6-6.7l111.4,48.2l99.8-26.6c121.4-34.9,242.8-34.9,299.3-3.3c23.3,13.3,69.8,23.3,104.8,24.9
			c78.2,0,74.8,24.9-6.7,79.8c-48.2,33.3-69.8,38.2-141.3,28.3c-84.8-10-84.8-10-128,56.5c-56.5,84.8-103.1,96.4-211.2,58.2
			c-63.2-23.3-91.5-26.6-113.1-13.3c-114.7,73.2-13.3,460.6,156.3,598.6c53.2,44.9,109.8,69.8,217.8,96.4
			c174.6,44.9,279.4,89.8,380.8,163c73.2,53.2,83.1,54.9,229.5,54.9c143-1.7,342.6-46.6,402.4-93.1c34.9-28.3,244.4-18.3,339.2,15
			c91.5,31.6,94.8,31.6,153,1.7c34.9-18.3,74.8-49.9,91.5-74.8c16.6-23.3,58.2-73.2,91.5-111.4c73.2-83.1,78.2-114.7,21.6-144.7
			c-58.2-29.9-68.2-88.1-33.3-168c34.9-74.8,44.9-78.2,91.5-31.6c36.6,36.6,48.2,171.3,16.6,191.2c-8.3,5-16.6,24.9-16.6,43.2
			c0,31.6,1.7,31.6,54.9,5c28.3-15,58.2-36.6,64.9-46.6c8.3-11.6,13.3-8.3,13.3,10c0,16.6-10,36.6-20,44.9
			c-11.6,10-46.6,36.6-76.5,61.5c-29.9,23.3-73.2,76.5-96.4,116.4c-23.3,39.9-73.2,99.8-111.4,131.4c-36.6,31.6-64.9,61.5-59.9,64.9
			c3.3,3.3,51.6,34.9,106.4,71.5c99.8,64.9,153,86.5,324.3,123.1c88.1,20,89.8,20,51.6,44.9c-24.9,16.6-68.2,24.9-128,21.6
			c-99.8-5-123.1,24.9-49.9,64.9c23.3,11.6,44.9,31.6,49.9,44.9c11.6,29.9-5,104.8-23.3,104.8c-33.3,0-83.1-91.5-83.1-151.3
			c0-56.5-5-64.9-44.9-74.8c-61.5-15-149.7-59.9-272.7-139.7c-84.8-54.9-118.1-66.5-184.6-66.5c-43.2,0-79.8,3.3-79.8,8.3
			c0,3.3,18.3,33.3,39.9,64.9c21.6,33.3,44.9,86.5,51.6,121.4c16.6,93.1,74.8,184.6,141.3,226.2c73.2,44.9,124.7,91.5,113.1,103.1
			c-16.6,16.6-216.2-98.1-251.1-144.7l-33.3-43.2l-79.8,79.8c-89.8,89.8-88.1,84.8-64.9,166.3c15,51.6,13.3,54.9-10,29.9
			c-16.6-16.6-26.6-54.9-26.6-104.8c0-64.9,10-88.1,51.5-131.4c78.2-79.8,89.8-143,44.9-229.5c-54.9-104.8-79.8-101.4-66.5,8.3
			c10,86.5,8.3,94.8-34.9,134.7c-24.9,23.3-51.6,43.2-58.2,43.2c-21.6,0-54.9-129.7-43.2-172.9c8.3-31.6,24.9-46.6,59.9-54.9
			c28.3-5,49.9-20,49.9-33.3c0-29.9-29.9-24.9-168,24.9c-49.9,20-148,39.9-216.2,46.6l-123.1,10l-5,222.8
			c-5,187.9-1.7,229.5,23.3,271.1c43.2,73.2,163,129.7,350.9,166.3c269.4,51.6,374.2,111.4,445.7,249.4
			c43.2,88.1,121.4,163,184.6,177.9c73.2,18.3,129.7-10,239.5-124.7c131.4-136.4,184.6-172.9,287.7-201.2
			c64.9-16.6,78.2-28.3,78.2-59.9c0-20-6.7-43.2-16.6-48.2c-8.3-5-16.6-34.9-16.6-63.2c0-41.6,13.3-64.9,59.9-101.4
			c71.5-56.5,89.8-41.6,89.8,69.8c0,68.2-41.6,136.4-83.1,136.4c-8.3,0-16.6,11.6-16.6,24.9c0,16.6,18.3,24.9,58.2,24.9
			c31.6,0,58.2,8.3,58.2,16.6c0,10-18.3,16.6-39.9,16.6c-20,0-59.9,6.7-86.5,15c-26.6,8.3-69.8,20-96.4,26.6
			c-31.6,6.7-101.4,64.9-196.2,161.3c-81.5,83.1-144.7,153-143,154.7c3.3,1.7,43.2,23.3,88.1,48.2c98.1,53.2,154.7,99.8,201.2,168
			c48.2,71.5,108.1,237.8,89.8,249.4c-29.9,18.3-16.6,68.2,24.9,108.1c53.2,49.9,56.5,146.3,8.3,191.2
			c-29.9,28.3-36.6,28.3-59.9,6.7c-36.6-38.2-48.2-141.3-23.3-216.2c20-59.9,18.3-73.2-18.3-153c-21.6-46.6-44.9-88.1-51.6-91.5
			c-8.3-3.3-13.3-15-13.3-26.6s-26.6-49.9-58.2-86.5l-59.9-64.9l10,66.5c8.3,71.5-8.3,106.4-68.2,138
			c-44.9,23.3-56.5,11.6-56.5-53.2c0-61.5,11.6-81.5,63.2-108.1c20-10,36.6-26.6,36.6-34.9c0-26.6-88.1-63.2-199.5-83.1
			c-58.2-10-126.4-29.9-153-43.2c-24.9-13.3-48.2-23.3-49.9-23.3c-3.3,0-3.3,48.2,0,109.8c5,59.9-1.7,153-11.6,207.9
			c-20,96.4-18.3,101.4,26.6,169.6c63.2,93.1,104.8,101.4,104.8,20c0-79.8,21.6-118.1,83.1-138c46.6-16.6,49.9-15,49.9,21.6
			c0,66.5-31.6,124.7-83.1,154.7c-59.9,34.9-61.5,46.6-10,101.4c44.9,49.9,79.8,141.3,64.9,177.9c-15,38.2-44.9,18.3-56.5-36.6
			c-13.3-68.2-26.6-86.5-134.7-187.9l-96.4-89.8l-53.2,54.9c-29.9,28.3-94.8,79.8-144.7,113.1c-86.5,56.5-154.7,158-161.3,237.8
			c-1.7,15-6.7,44.9-11.6,68.2c-8.3,29.9-1.7,49.9,21.6,71.5c44.9,39.9,41.6,104.8-5,164.6l-39.9,48.2L7712.2,1917.1z"/>
		<path id="node2_2_" class="st2" d="M6280.4,1814c-28.3-106.4,0-168,86.5-184.6l53.2-8.3v71.5c0,73.2-20,101.4-93.1,139.7
			C6295.4,1848.9,6288.7,1845.6,6280.4,1814z"/>
		<path id="node3_2_" class="st2" d="M8452.2,1764.1c-43.2-44.9-53.2-68.2-53.2-128c0-41.6,6.7-66.5,13.3-54.9
			c6.7,10,33.3,26.6,58.2,36.6c53.2,20,78.2,74.8,66.5,139.7C8523.7,1824,8510.4,1824,8452.2,1764.1z"/>
		<path id="node4_2_" class="st2" d="M7501,1730.8c0-54.9,66.5-111.4,129.7-111.4c44.9,0,53.2,6.7,53.2,41.6
			c0,59.9-54.9,108.1-124.7,108.1C7509.3,1769.1,7501,1764.1,7501,1730.8z"/>
		<path id="node5_2_" class="st2" d="M7843.5,1734.2c-56.5-44.9-58.2-108.1-1.7-121.4c51.6-13.3,103.1,11.6,114.7,56.5
			c5,18.3,15,48.2,20,66.5c6.7,28.3,1.7,33.3-39.9,33.3C7910,1769.1,7868.5,1754.1,7843.5,1734.2z"/>
		<path id="node6_2_" class="st2" d="M6593,1724.2c-20-3.3-51.6-24.9-71.5-44.9c-29.9-31.6-34.9-51.6-24.9-99.8
			c8.3-44.9,16.6-59.9,34.9-53.2c13.3,5,29.9,10,36.6,10c38.2,0,84.8,73.2,84.8,133c0,36.6-5,64.9-11.6,64.9
			C6632.9,1732.5,6611.3,1727.5,6593,1724.2z"/>
		<path id="node7_2_" class="st2" d="M8216,1681c0-44.9,11.6-68.2,54.9-104.8l53.2-44.9l5,71.5c5,76.5-11.6,104.8-74.8,124.7
			C8219.3,1737.5,8216,1732.5,8216,1681z"/>
		<path id="node8_2_" class="st2" d="M6014.3,1612.8c-13.3-69.8-1.7-101.4,48.2-123.1c31.6-15,39.9-13.3,48.2,6.7
			c18.3,48.2,10,101.4-18.3,126.4C6034.3,1671,6024.3,1671,6014.3,1612.8z"/>
		<path id="node9_2_" class="st2" d="M5863,1596.1c-76.5-33.3-96.4-66.5-84.8-134.7c10-51.6,16.6-58.2,48.2-48.2
			c69.8,20,111.4,74.8,111.4,143C5937.8,1626.1,5934.5,1627.7,5863,1596.1z"/>
		<path id="node10_2_" class="st2" d="M6799.2,1611.1c-3.3-5-5-31.6,0-58.2c11.6-79.8,153-139.7,153-64.9
			C6952.2,1547.9,6834.1,1644.4,6799.2,1611.1z"/>
		<path id="node11_2_" class="st2" d="M7886.8,1539.6l-38.2-29.9l59.9-28.3c66.5-31.6,109.8-20,141.3,36.6
			c11.6,24.9,10,33.3-10,41.6C7991.5,1577.9,7925,1569.5,7886.8,1539.6z"/>
		<path id="node12_2_" class="st2" d="M8497.1,1537.9c-38.2-31.6-39.9-31.6-8.3-66.5c44.9-49.9,126.4-46.6,176.3,6.7
			c41.6,44.9,41.6,44.9-11.6,73.2C8600.2,1577.9,8540.3,1572.9,8497.1,1537.9z"/>
		<path id="node13_2_" class="st2" d="M6657.9,1533c-28.3-34.9-38.2-86.5-23.3-111.4c13.3-20,21.6-20,59.9,5
			c31.6,21.6,41.6,39.9,38.2,73.2C6727.7,1547.9,6684.5,1566.2,6657.9,1533z"/>
		<path id="node14_2_" class="st2" d="M8116.2,1498c0-43.2,11.6-68.2,43.2-93.1c64.9-51.6,101.4-44.9,109.8,16.6
			c10,63.2-26.6,108.1-98.1,123.1C8117.9,1554.6,8116.2,1554.6,8116.2,1498z"/>
		<path id="node15_2_" class="st2" d="M6215.5,1506.3c-39.9-43.2-36.6-103.1,3.3-103.1c44.9,0,84.8,44.9,84.8,93.1
			C6303.7,1544.6,6255.4,1551.2,6215.5,1506.3z"/>
		<path id="node16_2_" class="st2" d="M7577.5,1508c-23.3-11.6-49.9-36.6-59.9-54.9c-13.3-24.9-10-33.3,18.3-41.6
			c54.9-18.3,104.8,3.3,134.7,54.9c29.9,48.2,28.3,49.9-10,56.5C7639,1528,7602.4,1521.3,7577.5,1508z"/>
		<path id="node17_2_" class="st2" d="M7318,1426.5c-18.3-48.2-6.7-113.1,23.3-139.7c16.6-11.6,29.9-1.7,51.6,39.9
			c29.9,53.2,29.9,59.9,3.3,99.8C7359.6,1481.4,7338,1481.4,7318,1426.5z"/>
		<path id="node18_2_" class="st2" d="M6327,1403.2c-48.2-20-66.5-49.9-38.2-68.2c39.9-24.9,108.1-16.6,138,16.6
			c28.3,31.6,28.3,33.3-5,49.9C6383.5,1423.2,6375.2,1423.2,6327,1403.2z"/>
		<path id="node19_2_" class="st2" d="M6769.3,1356.7l-38.2-29.9l51.6-21.6c58.2-24.9,111.4-13.3,126.4,26.6
			C6930.6,1388.3,6830.8,1406.6,6769.3,1356.7z"/>
		<path id="node20_2_" class="st2" d="M7720.5,1360c-44.9-38.2-71.5-156.3-33.3-156.3c54.9,0,81.5,41.6,76.5,114.7l-5,71.5
			L7720.5,1360z"/>
		<path id="node21_2_" class="st2" d="M7477.7,1333.4c-26.6-38.2-36.6-129.7-13.3-129.7c29.9,0,86.5,54.9,86.5,83.1
			c0,41.6-16.6,83.1-34.9,83.1C7509.3,1370,7491,1353.4,7477.7,1333.4z"/>
		<path id="node22_2_" class="st2" d="M8437.2,1318.4c26.6-69.8,76.5-101.4,143-88.1c53.2,11.6,53.2,11.6,24.9,54.9
			c-41.6,63.2-74.8,83.1-134.7,84.8C8418.9,1370,8418.9,1370,8437.2,1318.4z"/>
		<path id="node23_2_" class="st2" d="M5518.8,1300.1c-41.6-44.9-44.9-54.9-21.6-66.5c56.5-31.6,128-8.3,169.6,58.2l38.2,61.5h-68.2
			C5582,1353.4,5558.7,1343.4,5518.8,1300.1z"/>
		<path id="node24_2_" class="st2" d="M7076.9,1336.7c-5-10,5-39.9,24.9-66.5c38.2-54.9,104.8-66.5,156.3-28.3
			c26.6,20,26.6,23.3-6.7,66.5c-28.3,34.9-49.9,44.9-99.8,44.9C7116.8,1353.4,7081.9,1345,7076.9,1336.7z"/>
		<path id="node25_2_" class="st2" d="M6230.5,1233.6c-59.9-84.8,3.3-111.4,79.8-34.9c33.3,33.3,39.9,46.6,23.3,58.2
			C6295.4,1280.2,6257.1,1271.9,6230.5,1233.6z"/>
		<path id="node26_2_" class="st2" d="M6436.7,1237c-18.3-18.3-33.3-39.9-33.3-48.2s-5-28.3-11.6-44.9c-10-24.9-3.3-26.6,51.6-18.3
			c81.5,13.3,109.8,38.2,109.8,96.4c0,39.9-6.7,48.2-41.6,48.2C6488.3,1270.2,6455,1255.2,6436.7,1237z"/>
		<path id="node27_2_" class="st2" d="M5921.2,1217c0-54.9,20-78.2,78.2-94.8c51.6-15,51.6-15,36.6,34.9
			C6012.7,1241.9,5921.2,1288.5,5921.2,1217z"/>
		<path id="node28_2_" class="st2" d="M9014.2,1241.9c-28.3-10-99.8-73.2-99.8-88.1c0-16.6,94.8-66.5,128-66.5
			c28.3,0,138,84.8,138,108.1c0,11.6-108.1,58.2-128,56.5C9045.8,1251.9,9027.5,1246.9,9014.2,1241.9z"/>
		<path id="node29_2_" class="st2" d="M5355.8,1192.1c0-56.5,13.3-76.5,63.2-103.1c44.9-23.3,44.9-23.3,59.9,24.9
			c13.3,41.6-29.9,98.1-84.8,114.7C5360.8,1237,5355.8,1233.6,5355.8,1192.1z"/>
		<path id="node30_2_" class="st2" d="M5665.1,1168.8c-51.6-61.5-54.9-98.1-10-98.1c46.6,0,99.8,58.2,99.8,108.1
			C5754.9,1235.3,5716.7,1232,5665.1,1168.8z"/>
		<path id="node31_2_" class="st2" d="M8598.5,1137.2c0-79.8,99.8-153,123.1-89.8c20,49.9,10,73.2-43.2,106.4
			C8606.8,1197,8598.5,1195.4,8598.5,1137.2z"/>
		<path id="node32_2_" class="st2" d="M7130.1,1117.2c-51.6-51.6-51.6-51.6-16.6-68.2c53.2-23.3,111.4-1.7,139.7,49.9
			c13.3,26.6,29.9,51.6,39.9,58.2c8.3,6.7-11.6,13.3-46.6,13.3C7196.7,1170.4,7170,1158.8,7130.1,1117.2z"/>
		<path id="node33_2_" class="st2" d="M7321.4,1087.3c-23.3-23.3-36.6-53.2-36.6-91.5c0-66.5,18.3-73.2,66.5-24.9
			c34.9,34.9,39.9,69.8,20,121.4C7359.6,1120.6,7356.3,1118.9,7321.4,1087.3z"/>
		<path id="node34_2_" class="st2" d="M6160.7,1069c-26.6-43.2,91.5-66.5,124.7-24.9c15,18.3,13.3,24.9-8.3,33.3
			C6235.5,1093.9,6174,1089,6160.7,1069z"/>
		<path id="node35_2_" class="st2" d="M6922.3,1074c-26.6-16.6-10-64.9,29.9-86.5c15-8.3,48.2-10,73.2-3.3l44.9,11.6l-41.6,46.6
			C6985.5,1089,6958.9,1097.3,6922.3,1074z"/>
		<path id="node36_2_" class="st2" d="M5626.9,944.3c13.3-83.1,38.2-106.4,113.1-106.4c63.2,0,64.9,1.7,54.9,46.6
			c-13.3,59.9-81.5,119.7-134.7,119.7C5620.2,1004.1,5618.6,1000.8,5626.9,944.3z"/>
		<path id="node37_2_" class="st2" d="M8892.8,964.2c11.6-61.5,76.5-113.1,131.4-106.4c64.9,6.7,66.5,34.9,6.7,94.8
			C8964.3,1019.1,8881.2,1025.8,8892.8,964.2z"/>
		<path id="node38_2_" class="st2" d="M6769.3,936c0-61.5,39.9-98.1,111.4-98.1c46.6,0,56.5,5,48.2,26.6c-5,15-10,36.6-10,48.2
			c0,28.3-54.9,59.9-109.8,66.5C6775.9,982.5,6769.3,975.9,6769.3,936z"/>
		<path id="node39_2_" class="st2" d="M7697.2,949.3c-49.9-46.6-66.5-144.7-24.9-144.7c53.2,0,79.8,41.6,74.8,114.7l-5,71.5
			L7697.2,949.3z"/>
		<path id="node40_2_" class="st2" d="M4945.1,901c-48.2-23.3-48.2-28.3,10-93.1c54.9-59.9,113.1-68.2,176.3-26.6
			c36.6,24.9,38.2,29.9,15,63.2C5103.1,912.7,5018.2,936,4945.1,901z"/>
		<path id="node41_2_" class="st2" d="M7135.1,912.7c0-3.3,8.3-26.6,20-49.9c21.6-48.2,71.5-66.5,129.7-44.9l39.9,15l-44.9,43.2
			c-28.3,29.9-61.5,44.9-94.8,44.9C7158.4,921,7135.1,917.7,7135.1,912.7z"/>
		<path id="node42_2_" class="st2" d="M7836.9,901c-24.9-24.9-26.6-156.3-1.7-171.3c29.9-20,81.5,43.2,81.5,99.8
			c0,46.6-24.9,91.5-49.9,91.5C7861.8,921,7848.5,912.7,7836.9,901z"/>
		<path id="node43_2_" class="st2" d="M6636.3,857.8c0-28.3,16.6-63.2,39.9-84.8l39.9-38.2l11.6,53.2c8.3,38.2,3.3,59.9-18.3,84.8
			C6667.9,919.3,6636.3,912.7,6636.3,857.8z"/>
		<path id="node44_2_" class="st2" d="M5405.7,842.8c0-43.2,20-66.5,71.5-86.5c41.6-16.6,44.9-15,44.9,23.3
			c0,39.9-53.2,91.5-94.8,91.5C5415.7,871.1,5405.7,857.8,5405.7,842.8z"/>
		<path id="node45_2_" class="st2" d="M8764.8,791.3c0-74.8,16.6-93.1,104.8-116.4c59.9-16.6,61.5-16.6,61.5,29.9
			c0,58.2-58.2,128-119.7,143C8766.4,857.8,8764.8,856.2,8764.8,791.3z"/>
		<path id="node46_2_" class="st2" d="M6129.1,806.3c-46.6-20-86.5-68.2-99.8-121.4c-10-41.6-6.7-46.6,28.3-46.6
			c59.9,0,93.1,33.3,111.4,113.1C6183.9,824.6,6182.3,827.9,6129.1,806.3z"/>
		<path id="node47_2_" class="st2" d="M5720,738.1c-29.9-18.3-74.8-111.4-59.9-128c20-18.3,93.1,11.6,103.1,43.2
			C5778.2,703.2,5751.6,754.7,5720,738.1z"/>
		<path id="node48_2_" class="st2" d="M7002.1,721.5c-43.2-43.2-41.6-59.9,5-73.2c84.8-21.6,124.7-11.6,141.3,38.2
			c15,43.2,13.3,49.9-18.3,58.2C7066.9,761.4,7037,756.4,7002.1,721.5z"/>
		<path id="node49_2_" class="st2" d="M5858,704.8c-24.9-39.9-26.6-108.1-1.7-151.3c16.6-33.3,18.3-33.3,49.9-5
			c36.6,31.6,39.9,84.8,11.6,148C5894.6,746.4,5886.3,748.1,5858,704.8z"/>
		<path id="node50_2_" class="st2" d="M5214.5,713.1c-8.3-3.3-36.6-10-61.5-15c-36.6-8.3-113.1-96.4-113.1-133c0-5,29.9-10,66.5-10
			c49.9,0,71.5,8.3,89.8,38.2c20,33.3,51.6,129.7,39.9,126.4C5232.8,719.8,5224.4,716.5,5214.5,713.1z"/>
		<path id="node51_2_" class="st2" d="M7248.2,671.6c-34.9-26.6-46.6-49.9-46.6-93.1c0-64.9,28.3-74.8,73.2-24.9
			c20,21.6,26.6,53.2,23.3,93.1l-5,61.5L7248.2,671.6z"/>
		<path id="node52_2_" class="st2" d="M6215.5,653.3c-24.9-15-78.2-98.1-78.2-123.1c0-24.9,103.1-3.3,133,28.3
			C6338.6,631.7,6298.7,701.5,6215.5,653.3z"/>
		<path id="node53_2_" class="st2" d="M8748.2,563.5l-56.5-58.2h83.1c66.5,0,91.5,8.3,121.4,39.9c38.2,39.9,38.2,39.9,5,58.2
			C8844.6,633.3,8806.4,625,8748.2,563.5z"/>
		<path id="node54_2_" class="st2" d="M5292.6,580.1c-46.6-20-86.5-78.2-86.5-126.4c0-8.3,21.6-15,49.9-15
			c58.2,0,104.8,58.2,96.4,123.1C5347.5,601.7,5345.8,601.7,5292.6,580.1z"/>
		<path id="node55_2_" class="st2" d="M8407.3,508.6c-51.6-10-91.5-53.2-91.5-99.8c0-29.9,6.7-38.2,26.6-29.9c15,5,36.6,10,49.9,10
			c26.6,0,106.4,73.2,106.4,96.4C8498.7,505.3,8450.5,516.9,8407.3,508.6z"/>
		<path id="node56_2_" class="st2" d="M8971,508.6c-21.6-13.3-56.5-76.5-56.5-101.4c0-33.3,68.2-18.3,108.1,23.3
			c51.5,51.6,53.2,91.5,5,91.5C9005.9,521.9,8981,515.3,8971,508.6z"/>
		<path id="node57_2_" class="st2" d="M5399,457.1c-23.3-26.6-28.3-48.2-20-94.8c11.6-58.2,13.3-58.2,44.9-29.9
			c31.6,28.3,38.2,74.8,16.6,128C5430.6,488.6,5427.3,488.6,5399,457.1z"/>
		<path id="node58_2_" class="st2" d="M9114,377.2l-54.9-44.9l48.2-38.2c61.5-48.2,98.1-48.2,168,5c66.5,49.9,68.2,74.8,10,103.1
			C9217.1,432.1,9172.2,427.1,9114,377.2z"/>
		<path id="node59_2_" class="st2" d="M5222.8,340.6c0-41.6,43.2-101.4,73.2-101.4c6.7,0,10,26.6,6.7,59.9
			c-3.3,44.9-15,64.9-41.6,74.8C5227.8,385.5,5222.8,382.2,5222.8,340.6z"/>
		<path id="node60_2_" class="st2" d="M8576.9,370.6c-26.6-6.7-58.2-21.6-71.5-33.3c-26.6-21.6-31.6-131.4-6.7-131.4
			c41.6,0,116.4,53.2,126.4,89.8C8641.7,365.6,8628.4,385.5,8576.9,370.6z"/>
		<path id="node61_2_" class="st2" d="M8709.9,255.8c-53.2-61.5-56.5-98.1-13.3-151.3l31.6-38.2l34.9,56.5
			c39.9,66.5,44.9,114.7,13.3,156.3C8754.8,307.4,8751.5,305.7,8709.9,255.8z"/>
		<path id="node62_2_" class="st2" d="M5051.5,262.5c-20-20,74.8-123.1,113.1-123.1c78.2,0,89.8,94.8,15,123.1
			C5146.3,275.8,5064.8,275.8,5051.5,262.5z"/>
		<path id="node63_2_" class="st2" d="M5422.3,154.4c-10-18.3-13.3-54.9-8.3-81.5c10-43.2,15-46.6,43.2-28.3
			c41.6,26.6,54.9,68.2,31.6,111.4S5445.6,197.6,5422.3,154.4z"/>
		<path id="node64_2_" class="st2" d="M7905.1,161.1c-11.6-3.3-21.6-33.3-21.6-64.9c0-44.9,6.7-56.5,33.3-56.5
			c18.3,0,48.2,15,66.5,33.3c49.9,49.9,43.2,99.8-11.6,98.1C7945,171,7915,166,7905.1,161.1z"/>
		<path id="node65_2_" class="st2" d="M8217.7,122.8c-44.9-73.2-43.2-84.8,6.7-133c44.9-41.6,44.9-41.6,73.2,11.6
			c26.6,51.6,23.3,94.8-13.3,139.7l-31.6,38.2L8217.7,122.8z"/>
		<path id="node66_2_" class="st2" d="M7635.7,107.8c-18.3-11.6-18.3-21.6,0-59.9c33.3-68.2,69.8-84.8,123.1-61.5
			c43.2,20,43.2,28.3-3.3,98.1C7737.1,111.2,7663.9,126.1,7635.7,107.8z"/>
		<path id="node67_2_" class="st2" d="M5548.7,1.4c-20-76.5-10-109.8,38.2-136.4c48.2-23.3,49.9-23.3,59.9,24.9
			c11.6,54.9-10,108.1-56.5,133C5565.3,36.3,5557,31.3,5548.7,1.4z"/>
		<path id="node68_2_" class="st2" d="M5305.9-45.1c0-76.5,26.6-114.7,83.1-114.7c43.2,0,49.9,6.7,49.9,46.6
			c0,54.9-13.3,74.8-61.5,101.4C5320.9,16.4,5305.9,9.7,5305.9-45.1z"/>
		<path id="node69_2_" class="st2" d="M8402.3-28.5c-86.5-18.3-99.8-39.9-53.2-89.8c48.2-51.6,94.8-53.2,163-1.7
			c41.6,29.9,48.2,43.2,33.3,54.9C8497.1-26.9,8453.8-16.9,8402.3-28.5z"/>
		<path id="node70_2_" class="st2" d="M5162.9-46.8c-43.2-20-73.2-81.5-73.2-148c0-44.9,5-49.9,38.2-38.2
			c68.2,20,94.8,58.2,94.8,134.7S5217.8-18.5,5162.9-46.8z"/>
		<path id="node71_2_" class="st2" d="M7891.8-60.1c-29.9-33.3-28.3-33.3,26.6-33.3s98.1,23.3,98.1,53.2
			C8016.5-13.6,7920-28.5,7891.8-60.1z"/>
		<path id="node72_2_" class="st2" d="M8761.5-169.9c-61.5-33.3-78.2-69.8-59.9-136.4c11.6-46.6,20-53.2,51.5-44.9
			c59.9,18.3,111.4,86.5,111.4,151.3S8837.9-128.3,8761.5-169.9z"/>
		<path id="node73_2_" class="st2" d="M8249.3-209.8c0-58.2,51.6-116.4,101.4-116.4c29.9,0,33.3,6.7,24.9,46.6
			c-11.6,44.9-79.8,119.7-111.4,119.7C8255.9-159.9,8249.3-181.5,8249.3-209.8z"/>
		<path id="node74_2_" class="st2" d="M5876.3-271.3c-11.6-29.9,24.9-106.4,56.5-116.4c34.9-11.6,44.9,76.5,13.3,111.4
			C5909.6-236.4,5889.6-234.7,5876.3-271.3z"/>
		<path id="node75_2_" class="st2" d="M5138-307.9c-28.3-28.3-48.2-66.5-48.2-91.5c0-38.2,6.7-43.2,58.2-43.2
			c76.5,0,141.3,61.5,141.3,133c0,44.9-5,49.9-51.6,49.9C5204.5-259.7,5171.2-276.3,5138-307.9z"/>
		<path id="node76_2_" class="st2" d="M5397.4-324.5c-53.2-21.6-88.1-71.5-99.8-141.3l-13.3-63.2l56.5,11.6
			c81.5,16.6,111.4,49.9,118.1,134.7C5463.9-307.9,5457.3-301.2,5397.4-324.5z"/>
		<path id="node77_2_" class="st2" d="M8859.6-369.4c-56.5-29.9-53.2-64.9,8.3-111.4c49.9-38.2,101.4-31.6,169.6,23.3l43.2,34.9
			l-39.9,31.6C8984.3-346.1,8914.4-337.8,8859.6-369.4z"/>
		<path id="node78_2_" class="st2" d="M5771.5-409.3c0-63.2,81.5-159.6,121.4-144.7c38.2,15,36.6,98.1-1.7,133
			c-15,13.3-48.2,33.3-74.8,43.2C5773.2-361.1,5771.5-362.8,5771.5-409.3z"/>
		<path id="node79_2_" class="st2" d="M8681.6-532.4c0-58.2,44.9-109.8,94.8-109.8c36.6,0,23.3,83.1-20,124.7
			C8701.6-460.9,8681.6-465.9,8681.6-532.4z"/>
		<path id="node80_2_" class="st2" d="M5676.8-539c-8.3-24.9-11.6-58.2-8.3-74.8c6.7-33.3,96.4-84.8,119.7-69.8
			c41.6,26.6,1.7,144.7-58.2,171.3C5695-495.8,5690.1-499.1,5676.8-539z"/>
		<path id="node81_2_" class="st2" d="M8525.3-535.7c-23.3-61.5-10-123.1,33.3-149.7c36.6-24.9,44.9-24.9,58.2-5
			c8.3,13.3,11.6,38.2,6.7,56.5c-3.3,18.3-8.3,41.6-8.3,51.6c0,11.6-18.3,31.6-39.9,44.9C8538.6-512.4,8533.6-512.4,8525.3-535.7z"
			/>
		<path id="node82_2_" class="st2" d="M5503.8-613.9c-43.2-58.2-51.6-108.1-31.6-169.6l20-58.2l48.2,34.9
			c56.5,39.9,61.5,94.8,18.3,176.3l-28.3,51.6L5503.8-613.9z"/>
		<path id="node83_2_" class="st2" d="M8660-770.2c-69.8-28.3-89.8-73.2-63.2-143c21.6-58.2,58.2-56.5,119.7,3.3
			c34.9,36.6,48.2,64.9,48.2,108.1C8764.8-735.3,8753.1-730.3,8660-770.2z"/>
		<path id="node84_2_" class="st2" d="M7745.4-805.1c-46.6-51.6-36.6-128,23.3-171.3c43.2-29.9,54.9-31.6,66.5-13.3
			c28.3,46.6,16.6,141.3-23.3,177.9C7773.7-775.2,7772-775.2,7745.4-805.1z"/>
		<path id="node85_2_" class="st2" d="M7956.6-870c-10-71.5-6.7-81.5,33.3-116.4c63.2-53.2,109.8-51.6,109.8,8.3
			c0,54.9-51.6,144.7-98.1,168C7971.6-793.5,7968.2-798.4,7956.6-870z"/>
		<path id="node86_2_" class="st2" d="M8287.5-894.9c-74.8-20-109.8-76.5-94.8-153c11.6-64.9,18.3-68.2,78.2-41.6
			c54.9,24.9,81.5,79.8,74.8,149.7C8340.7-881.6,8339.1-881.6,8287.5-894.9z"/>
		<path id="node87_2_" class="st2" d="M8731.5-984.7c-23.3-16.6-44.9-31.6-48.2-34.9c-5-3.3,10-23.3,31.6-46.6
			c49.9-53.2,124.7-54.9,187.9-3.3c46.6,36.6,46.6,38.2,15,66.5C8869.5-958.1,8781.4-949.8,8731.5-984.7z"/>
		<path id="node88_2_" class="st2" d="M8608.5-1147.7c-15-23.3-26.6-54.9-26.6-71.5c0-39.9,46.6-104.8,73.2-104.8
			c51.5,0,59.9,146.3,11.6,189.6C8638.4-1107.7,8635.1-1109.4,8608.5-1147.7z"/>
	</g>
</g>
<g>
	<path class="st2" d="M412.7,462c-0.1,0.5-0.6,0.7-1.5,0.5c-0.4,0-0.9,0-1.4,0c-0.5,3.4-2.1,6.2-4.7,8.3c-1.9,1.5-3.9,2.3-6.1,2.3
		c-2.6,0-4-1-4-3c0-3,2.1-5.4,6.2-7.3c1.9-0.8,4-1.4,6.4-1.6c-0.1-3.8-2.9-5.7-8.5-5.7c-4.4,0-9.4,1.1-15.2,3.2
		c-6.8,2.5-13.5,6.1-20.2,10.8c-9.1,6.5-16,13.2-20.7,20.3c-4.1,6.2-6.2,12-6.2,17.5c0,2.9,0.6,5.4,1.8,7.7c3.2,6,10.3,9,21.1,9
		c3,0,5.9-0.2,8.5-0.7c7.7-1.5,14.7-4.1,20.9-7.8c4.2-2.6,7.5-5.3,10-8.1c1-1,1.8-1.5,2.5-1.5c0.2,0,0.4,0.1,0.5,0.2
		c0.4,0.6-0.1,1.6-1.5,3c-3.9,3.8-7.5,6.8-10.8,8.9c-5.9,3.7-12.8,6.3-20.9,7.9c-4.4,0.8-8.7,1.3-12.9,1.3
		c-11.3,0-19.3-2.9-23.9-8.8c-2.5-3.2-3.8-7.2-3.8-12c0-10.1,5.8-20.1,17.4-29.9c8.7-7.4,18.3-13.2,28.8-17.4
		c9.2-3.7,17.2-5.5,24.1-5.5c3.8,0,6.6,0.6,8.4,1.9c1.9,1.4,2.9,3.4,2.9,5.8C411.9,461.1,412.8,461.4,412.7,462z M407.6,462.8
		c-3.2,0.5-5.6,1.5-7.3,2.8c-1.9,1.4-2.8,2.7-2.8,4.1c0,0.8,0.5,1.3,1.6,1.3c1.3,0,2.8-0.6,4.6-1.9
		C405.8,467.6,407.1,465.5,407.6,462.8z"/>
	<path class="st2" d="M442.1,510.6c0.7,0.1-1.8,2.2-7.3,6.3c-7.9,5.9-13.4,8.6-16.5,8.2c-3.2-0.4-4.9-2.3-4.9-5.6
		c0-0.8,0.1-1.6,0.4-2.4c-4.8,5.5-9,8.2-12.5,8c-3.7-0.2-5.6-2.5-5.6-6.8c0-4.1,1.9-8.5,5.8-13.4c3.8-4.9,8.4-8.9,13.7-12.1
		c4.9-2.8,9-4.2,12.3-4.2c1.4,0,2.6,0.3,3.4,1c0.8,0.7,1.2,1.7,1,3.1c1.4-1.4,2.2-2.2,2.5-2.4c0.3-0.2,0.7-0.4,1.3-0.5
		c0.6-0.1,1.1-0.1,1.4,0c0.4,0.1,0.5,0.2,0.3,0.5c-2,2.8-5.3,7.8-10.1,14.9c-4.3,6.6-6.6,11.3-6.9,14.1c-0.3,1.8,0.2,2.7,1.5,2.7
		c2.3,0,6.5-2.5,12.6-7.5c5.5-4.4,7.5-6.2,6.1-5.5c0.2-0.3,0.6-0.5,1-0.5C442.3,508.5,442.5,509.2,442.1,510.6z M428.7,496.4
		c0.7-0.9,1.1-1.9,1.1-3.1c0-1.8-0.9-2.7-2.6-2.7c-1.9,0-4.2,0.9-7.1,2.8c-3.1,2-6.1,4.6-9,7.9c-6.5,7.3-9.7,13.4-9.7,18.2
		c0,2,0.7,3.1,2.1,3.1c1.6,0,4-1.6,7.4-4.9c2.8-2.7,5.4-5.6,7.6-8.6C421.4,505.1,424.8,500.9,428.7,496.4z"/>
	<path class="st2" d="M482.7,509.7c1.3-0.2-1.8,2.5-9.2,8.1c-4.7,3.6-10.3,6.6-16.8,8.9c-4.4,7-8.5,12.8-12.1,17.5
		c-3.6,4.7-7.5,8.3-11.6,10.8c-3.5,2.1-6.5,3.2-9.2,3.2c-2.7,0-4.1-1.3-4.1-3.8c0-2,0.9-4.5,2.6-7.3c1.7-2.9,4.1-5.6,7.1-8.3
		c5.6-4.9,13.3-9.2,23-12.7c1.9-3.6,3.3-6.6,4.4-9.1c-5.2,5.6-9.6,8.4-13.2,8.2c-3.7-0.2-5.6-2.5-5.6-6.8c0-4.1,1.9-8.5,5.8-13.4
		c3.8-4.9,8.4-8.9,13.7-12.1c4.9-2.8,9-4.2,12.3-4.2c1.4,0,2.6,0.3,3.4,1c0.8,0.7,1.2,1.7,1,3.1c1.4-1.4,2.2-2.2,2.5-2.4
		c0.3-0.2,0.7-0.4,1.3-0.5c0.6-0.1,1.1-0.1,1.4,0c0.4,0.1,0.5,0.2,0.3,0.5c-0.8,1.2-7.9,12.3-21.1,33.3c6.1-2.6,10.8-5.1,13.9-7.6
		c5.6-4.3,8.4-6.8,8.4-7.6C481.3,508.1,481.9,508.5,482.7,509.7z M451.1,528.7c-7.6,2.9-13.8,6.5-18.6,10.6c-2.3,2.1-4.3,4.4-5.9,7
		c-1.6,2.5-2.4,4.7-2.4,6.3c0,1.7,0.8,2.6,2.3,2.6c1.7,0,4-1,6.9-3.1c3.2-2.3,6.1-5.3,8.8-8.7C444.7,540,447.7,535,451.1,528.7z
		 M471,496.4c0.7-0.9,1.1-1.9,1.1-3.1c0-1.8-0.9-2.7-2.6-2.7c-1.9,0-4.2,0.9-7.1,2.8c-3.1,2-6.1,4.6-9,7.9
		c-6.5,7.3-9.7,13.4-9.7,18.2c0,2,0.7,3.1,2.1,3.1c1.6,0,4-1.6,7.4-4.9c2.8-2.7,5.4-5.6,7.6-8.6C463.7,505.1,467.1,500.9,471,496.4z
		"/>
	<path class="st2" d="M523.9,510.2c-1.6,2.7-4.3,4.6-8.2,5.6c-1.8,0.5-3.4,0.7-4.7,0.7c-2.1,0-3.9-0.5-5.4-1.4
		c-1.7,1.7-3.5,3.2-5.4,4.6c-1.8,1.4-3.7,2.6-5.5,3.6c-1.8,1-3.6,1.8-5.4,2.3c-1.7,0.5-3.3,0.8-4.8,0.8c-4.4,0-6.7-2.2-6.7-6.5
		c0-3.5,1.6-7.6,4.8-12.3c3.5-5,7.9-9.5,13.3-13.2c5.3-3.7,10-5.6,14-5.6c4.4,0,6.7,2.2,6.7,6.5c0,3.5-1.6,7.6-4.8,12.3
		c-0.7,1-1.4,1.9-2.1,2.8c-0.7,0.9-1.5,1.8-2.3,2.7c1.3,0.8,2.6,1.2,3.9,1.2c1,0,2.3-0.2,4-0.7c3.5-1.1,5.7-2.5,6.6-4.4
		c0.4-0.4,0.8-0.6,1.3-0.6c0.7,0,1,0.3,1,0.9C524.2,509.7,524.1,510,523.9,510.2z M510.5,504.8c2.2-3.7,3.3-6.9,3.3-9.5
		c0-2.8-1.2-4.1-3.7-4.1c-2.7,0-6,1.5-10,4.6c-3.9,3-7.4,6.7-10.4,11.1c-3.1,4.6-4.7,8.4-4.7,11.6c0,2.8,1.3,4.1,3.8,4.1
		c4,0,8.9-2.9,14.6-8.8c-1.6-1.3-2.4-2.8-2.4-4.4c0-1.4,0.6-2.6,1.8-3.6c1.4-1.1,3.1-1.6,4.9-1.6
		C508.9,504.1,509.8,504.4,510.5,504.8z"/>
	<path class="st2" d="M565.7,509.8c-0.4,0.8-1.3,1.7-2.7,2.8c-1.4,1.1-3.2,2.5-5.6,4.2c-3.6,2.8-6.8,4.1-9.7,4.1
		c-1,0-2.1-0.1-3.2-0.5c-4.2,3.7-8.1,5.5-11.8,5.5c-2.1,0-4-0.7-5.7-2c-1.9-1.4-2.8-3.9-2.8-7.4c0-4.5,1.5-10.3,4.6-17.5
		c2.8-6.6,6.4-13.1,10.7-19.5c5.5-8.1,10.9-14.9,16.4-20.4c5.5-5.5,9.7-8.2,12.6-8.2c1.4,0,2.2,0.7,2.2,2c0,2.3-2.1,6.8-6.3,13.2
		c-3.6,5.6-7.8,11.4-12.6,17.2c-8.2,10-15.4,17.3-21.4,22.1c-1,3.1-1.5,5.7-1.5,7.9c0,3.9,1.6,5.8,5,5.8c1.6,0,3.4-0.5,5.4-1.6
		c-2-1.9-3.1-4.2-3.1-6.8c0-4.1,1.9-8.5,5.7-13.2c3.8-4.7,7.6-7.1,11.3-7.1c1,0,1.9,0.2,2.7,0.6c1.7,0.9,2.6,2.6,2.6,5.2
		c0,3.2-1.2,7.1-3.5,11.4c-2.3,4.4-5.2,8-8.5,10.8c0.5,0.1,1,0.1,1.5,0.1c2.4,0,5.1-1.1,8-3.4c5.2-4,7.8-6.1,7.6-6.5
		c0.4-0.4,0.7-0.6,1.1-0.6s0.7,0.2,0.9,0.6C565.9,509.2,565.9,509.6,565.7,509.8z M566.2,455.8c-1.7,0-4.5,2.1-8.5,6.2
		c-4.6,4.7-9.5,11.2-14.9,19.3c-4.7,7-8.3,13.6-10.8,19.7c5.5-4.9,11.4-11.3,17.7-19c11.5-14.2,17.3-22.6,17.3-25.5
		C567.1,456.1,566.8,455.8,566.2,455.8z M552.9,492.5c-1.6,0-3.5,0.9-5.6,2.6c-2.1,1.7-4,3.9-5.7,6.7c-2,3.2-3,6.2-3,8.8
		c0,2.3,0.9,4.2,2.6,5.8c1.7-1.2,3.4-2.6,5-4.3c1.9-2,3.9-4.7,5.9-8.3c2.2-3.8,3.2-6.8,3.2-8.8C555.4,493.3,554.6,492.5,552.9,492.5
		z"/>
	<path class="st2" d="M606.9,510.6c0.7,0.1-1.8,2.2-7.3,6.3c-7.9,5.9-13.4,8.6-16.5,8.2c-3.2-0.4-4.9-2.3-4.9-5.6
		c0-0.8,0.1-1.6,0.4-2.4c-4.8,5.5-9,8.2-12.5,8c-3.7-0.2-5.6-2.5-5.6-6.8c0-4.1,1.9-8.5,5.8-13.4c3.8-4.9,8.4-8.9,13.7-12.1
		c4.9-2.8,9-4.2,12.3-4.2c1.4,0,2.6,0.3,3.4,1c0.8,0.7,1.2,1.7,1,3.1c1.4-1.4,2.2-2.2,2.5-2.4c0.3-0.2,0.7-0.4,1.3-0.5
		c0.6-0.1,1.1-0.1,1.4,0c0.4,0.1,0.5,0.2,0.3,0.5c-2,2.8-5.3,7.8-10.1,14.9c-4.3,6.6-6.6,11.3-6.9,14.1c-0.3,1.8,0.2,2.7,1.5,2.7
		c2.3,0,6.5-2.5,12.6-7.5c5.5-4.4,7.5-6.2,6.1-5.5c0.2-0.3,0.6-0.5,1-0.5C607.1,508.5,607.3,509.2,606.9,510.6z M593.5,496.4
		c0.7-0.9,1.1-1.9,1.1-3.1c0-1.8-0.9-2.7-2.6-2.7c-1.9,0-4.2,0.9-7.1,2.8c-3.1,2-6.1,4.6-9,7.9c-6.5,7.3-9.7,13.4-9.7,18.2
		c0,2,0.7,3.1,2.1,3.1c1.6,0,4-1.6,7.4-4.9c2.8-2.7,5.4-5.6,7.6-8.6C586.2,505.1,589.6,500.9,593.5,496.4z"/>
	<path class="st2" d="M657.5,490.3c-1,1.5-2.4,3.5-4.2,5.9c-1.8,2.4-4,5.4-6.5,9c-4.6,6.5-7.1,11.3-7.6,14.1
		c-0.4,1.8,0.1,2.7,1.4,2.7c0.7,0,1.7-0.4,3-1.1c1.3-0.7,2.6-1.6,3.8-2.6c2.3-1.7,4.4-3.5,6.4-5.2c2-1.7,3.9-3.5,5.5-5.2
		c0.5-0.6,1.1-0.9,1.6-0.9c0.5,0,0.7,0.2,0.7,0.6c0.1,0.5-0.1,1-0.5,1.4c-2.6,3.1-6.4,6.4-11.3,10c-2.7,2.2-5.2,3.8-7.5,4.9
		c-2.3,1-4.2,1.4-5.5,1.3c-3.2-0.4-4.8-2.3-4.6-5.6c0-0.6,0.1-1.2,0.3-1.9c0.6-2.2,2.4-5.3,5.5-9.3c-1.2,0.5-2.4,0.8-3.7,1
		c-1.3,0.2-2.5,0.2-3.6-0.1c-0.9,0.1-1.7,0.3-2.4,0.6c-0.7,0.3-1.3,0.6-1.8,1c-0.5,0.4-1.1,0.8-1.6,1.3c-0.5,0.5-1.1,1-1.7,1.5
		c-1.6,1.9-3,3.4-4.2,4.6c-1.2,1.2-2.2,2.2-3.1,3c-0.9,0.8-1.8,1.4-2.6,1.9c-0.8,0.5-1.6,1-2.4,1.4c-1.4,0.7-2.7,0.9-4.1,0.7
		c-1.4-0.2-2.6-0.7-3.6-1.6c-1.1-0.8-1.9-1.9-2.6-3.2c-0.6-1.3-0.9-2.8-0.8-4.4c0.1-1.2,0.4-2.5,0.9-3.9c0.5-1.4,1.4-2.8,2.9-4.2
		c0.8-0.5,1.6-1,2.4-1.3c0.8-0.3,1.6-0.4,2.3-0.3c0.7,0.1,1.3,0.5,1.8,1.1c0.4,0.6,0.6,1.6,0.6,2.9c-0.1,1-0.4,2-1.1,2.9
		c-0.7,0.9-1.7,1.4-3,1.4c-0.7,0-1.2,0.2-1.7,0.5c-0.5,0.4-0.9,0.8-1.3,1.4c-0.4,0.8-0.5,1.8-0.2,2.9c0.3,1.1,0.9,2,1.7,2.7
		c0.8,0.7,1.9,1,3.2,0.9c1.3-0.1,2.7-0.9,4.3-2.5c0.9-1,1.7-1.8,2.3-2.4c0.6-0.6,1.2-1.2,1.8-1.8c0.6-0.6,1.2-1.2,1.8-1.9
		c0.7-0.7,1.5-1.5,2.4-2.5c0.2-0.2,0.6-0.6,1.1-0.9c0.5-0.4,1-0.8,1.6-1.2c0.6-0.4,1.2-0.8,1.8-1.3c0.6-0.4,1.2-0.8,1.8-1.1
		c-1.4-1.1-2.3-2.6-2.5-4.7c-0.2-1.3-0.1-2.6,0.2-3.8c0.3-1.2,0.9-2.4,1.6-3.7c1-1.4,2.1-2.6,3.4-3.7c1.2-1.1,2.6-2,4.2-2.7
		c3.3-1.3,6.2-1.5,8.8-0.8c3,1,4.7,3.1,5.2,6.1v2c0.1-0.1,0.3-0.3,0.4-0.5c0.1-0.2,0.3-0.4,0.5-0.5c0.8-0.8,1.5-1.5,1.8-1.9
		c0.4-0.5,0.9-0.9,1.4-1.4c0.1-0.1,0.2-0.3,0.5-0.6c0.3-0.3,0.6-0.6,0.9-0.9c0.3-0.3,0.6-0.5,0.8-0.7c0.2-0.2,0.3-0.2,0.2-0.2
		c0.2-0.1,0.5-0.2,0.9-0.2c0.4,0,0.7,0,1.1,0c0.3,0.1,0.6,0.2,0.8,0.3C657.6,489.9,657.6,490.1,657.5,490.3z M644.8,499.6
		c0.5-1.1,0.8-2.1,1-3c0.2-0.9,0.3-1.8,0.1-2.8c-0.1-1-0.4-1.8-0.9-2.4c-0.5-0.6-1.1-1-1.8-1.3c-1.9-0.5-4-0.1-6.3,1.2
		c-1,0.6-2,1.6-3.1,3.1c-1.1,1.4-2,3-2.7,4.6c-0.7,1.7-1,3.3-1,4.8c0,1.6,0.7,2.7,2,3.5c2.6,0.8,5.5-0.1,8.6-2.9L644.8,499.6z"/>
	<path class="st2" d="M692.1,508.3c0.7-1.1,1.7-2.4,3-4c1.3-1.6,2.8-3.3,4.4-5s3.2-3.3,4.7-4.8c1.6-1.5,2.9-2.6,4-3.3
		c1.6-1,3-1.8,4.2-2.3c1.2-0.5,2.3-0.8,3.3-0.8c1.7,0,3.1,0.3,4.1,0.9s1.5,1.8,1.7,3.6c0.1,1.7-0.3,3.4-1.2,5
		c-0.8,1.6-2.6,3.5-5.1,5.7c-2.4,2.5-4.3,4.6-5.6,6.1c-1.3,1.6-2.3,2.9-3,4s-1.1,2-1.2,2.9c-0.2,0.8-0.2,1.8-0.2,2.8
		c0,0.5,0.1,1.2,0.2,1.8c0.1,0.7,0.6,1,1.5,0.9c2.2-0.2,6-2.4,11.3-6.6c1.1-0.8,2-1.6,2.9-2.3c0.8-0.7,1.6-1.4,2.4-2
		c0.8-0.7,1.5-1.3,2.3-2c0.7-0.7,1.5-1.5,2.3-2.4c0.4-0.6,0.9-0.9,1.5-0.9c0.5,0,0.8,0.2,0.8,0.6c0.1,0.5-0.1,1-0.5,1.4
		c-0.6,0.7-1.2,1.4-1.8,2s-1.2,1.2-1.9,1.8c-0.7,0.6-1.5,1.3-2.4,2c-0.9,0.7-2,1.5-3.2,2.4c-7.9,6-13.4,9-16.5,9.1
		c-1.7,0-3.3-0.5-4.7-1.5c-1.4-1-2.1-2.4-2.3-4.1c0-0.9,0.1-1.8,0.3-2.7c0.2-0.9,0.5-1.8,1-2.7c0.5-0.9,1.1-1.9,2-2.9
		c0.8-1,1.9-2,3.2-3.1c3.8-3.2,6.8-6.3,8.9-9.2s3.3-5.4,3.5-7.3c0.1-0.5-0.1-1-0.5-1.3c-0.4-0.3-1-0.4-1.8-0.3
		c-0.7,0.1-1.6,0.6-2.8,1.3c-1.2,0.8-2.4,1.7-3.6,2.8c-3.1,2.7-5.7,5.3-7.9,7.7c-2.2,2.5-4.2,5.2-6.1,8.1L692.1,508.3z"/>
	<path class="st2" d="M770.7,510.6c0.7,0.1-1.8,2.2-7.3,6.3c-7.9,5.9-13.4,8.6-16.5,8.2c-3.2-0.4-4.9-2.3-4.9-5.6
		c0-0.8,0.1-1.6,0.4-2.4c-4.8,5.5-9,8.2-12.5,8c-3.7-0.2-5.6-2.5-5.6-6.8c0-4.1,1.9-8.5,5.8-13.4c3.8-4.9,8.4-8.9,13.7-12.1
		c4.9-2.8,9-4.2,12.3-4.2c1.4,0,2.6,0.3,3.4,1c0.8,0.7,1.2,1.7,1,3.1c1.4-1.4,2.2-2.2,2.5-2.4c0.3-0.2,0.7-0.4,1.3-0.5
		c0.6-0.1,1.1-0.1,1.4,0c0.4,0.1,0.4,0.2,0.3,0.5c-2,2.8-5.3,7.8-10.1,14.9c-4.3,6.6-6.6,11.3-6.9,14.1c-0.3,1.8,0.2,2.7,1.5,2.7
		c2.3,0,6.5-2.5,12.6-7.5c5.5-4.4,7.5-6.2,6.1-5.5c0.2-0.3,0.6-0.5,1-0.5C771,508.5,771.2,509.2,770.7,510.6z M757.4,496.4
		c0.7-0.9,1.1-1.9,1.1-3.1c0-1.8-0.9-2.7-2.6-2.7c-1.9,0-4.2,0.9-7.1,2.8c-3.1,2-6.1,4.6-9,7.9c-6.5,7.3-9.7,13.4-9.7,18.2
		c0,2,0.7,3.1,2.1,3.1c1.6,0,4-1.6,7.4-4.9c2.8-2.7,5.4-5.6,7.6-8.6C750,505.1,753.5,500.9,757.4,496.4z"/>
	<path class="st2" d="M812.7,492.2c1-0.6,1.3-1,0.8-1.2c-0.5-0.2-1.2-0.1-2.1,0.3c-1.9,0.5-3.8,1.5-5.9,3.2
		c-2.1,1.7-4.2,3.6-6.4,5.9c-2.2,2.3-4.4,4.8-6.5,7.4c-2.2,2.6-4.2,5.1-6.2,7.4c-2,2.3-3.8,4.3-5.5,6.1c-1.7,1.7-3.1,2.9-4.2,3.4
		c-1.4,0.7-2.9,0.9-4.3,0.7c-1.4-0.2-2.7-0.7-3.9-1.6c-1.2-0.8-2.1-1.9-2.9-3.2c-0.8-1.3-1.1-2.8-1-4.3c0.1-1.2,0.3-2.5,0.7-3.9
		c0.4-1.4,1.4-2.8,3-4.1c0.8-0.5,1.6-1,2.5-1.3c0.9-0.3,1.7-0.4,2.5-0.3c0.8,0.1,1.4,0.5,1.8,1.1c0.5,0.6,0.7,1.6,0.7,3
		c0,1-0.3,1.9-1,2.8c-0.7,0.9-1.7,1.4-3.1,1.4c-0.7,0-1.2,0.2-1.8,0.5s-0.9,0.8-1.3,1.4c-0.5,0.8-0.5,1.8-0.1,2.9c0.4,1.1,1,2,2,2.7
		c0.9,0.7,2.1,1,3.5,0.9c1.4-0.1,2.8-0.9,4.4-2.4c1.8-1.9,3.7-4,5.8-6.4c2-2.4,4.1-4.9,6.3-7.4c2.1-2.5,4.3-4.9,6.5-7.2
		c2.2-2.3,4.3-4.3,6.4-6c2.1-1.7,4.2-3,6.2-3.8c2-0.8,3.9-0.9,5.7-0.4c0.2-0.1,0.5-0.2,0.8-0.2c0.4,0,0.7,0,1.1,0
		c0.4,0,0.6,0.1,0.9,0.2c0.2,0.1,0.3,0.3,0.1,0.5c-0.9,1.5-2.2,3.5-3.9,5.9c-1.7,2.4-3.8,5.4-6.2,9c-4.3,6.6-6.6,11.3-6.9,14.1
		c-0.3,1.8,0.2,2.7,1.5,2.7c0.7,0,1.7-0.4,3-1.1c1.3-0.7,2.5-1.6,3.7-2.6c4.3-3.4,8.2-6.9,11.5-10.4c0.4-0.6,0.9-0.9,1.5-0.9
		c0.5,0,0.7,0.2,0.8,0.6c0.1,0.5-0.1,1-0.5,1.4c-2.5,3.1-6.1,6.4-10.9,10c-2.6,2.2-5,3.8-7.3,4.9c-2.3,1-4.1,1.4-5.5,1.3
		c-3.2-0.4-4.9-2.3-4.9-5.6c0-0.3,0-0.6,0-0.9c0-0.3,0.1-0.6,0.1-0.9c0.7-2.8,3.5-7.3,8.5-13.8c0.9-1.1,1.9-2.4,3.1-3.8
		c1.2-1.4,2.5-2.9,4-4.6c0.8-0.8,1.4-1.5,1.8-1.9C811.8,493.1,812.2,492.6,812.7,492.2z"/>
	<path class="st2" d="M857.7,507.7c0.6,0.5,0.4,1.3-0.5,2.3c-0.5,0.8-3.6,3.5-9.4,8.1c-7.6,5.3-14.4,8-20.4,8
		c-2.3,0-4.2-0.5-5.8-1.4c-2.5-1.6-3.7-4-3.7-7.2c0-5.3,2.8-10.9,8.5-16.8c3.5-3.5,7.3-6.4,11.6-8.7c4.3-2.3,7.8-3.4,10.7-3.4
		c2.7,0,4,0.8,4,2.4c0,1.6-1.4,4-4.1,7c-2.5,2.6-5,4.9-7.7,6.8c-4.6,3.3-9.5,5.5-14.7,6.6c-0.6,1.9-0.9,3.5-0.9,5c0,2.3,0.8,4,2.3,5
		c1.3,0.9,2.9,1.3,4.7,1.3c4,0,8.7-1.9,14.1-5.8c4.7-3.9,7.7-6.6,8.9-8.2C856.5,507.6,857.2,507.3,857.7,507.7z M849.2,490.5
		c-1.6,0-4,0.9-7,2.7c-3.2,1.9-6.2,4.3-9,7.1c-2.3,2.4-4.3,5.3-5.8,8.7c4.1-1.1,8.2-3.1,12.3-5.9c2.6-1.9,5.1-4,7.5-6.4
		c2.4-2.4,3.6-4.1,3.6-5.2C850.8,490.9,850.2,490.5,849.2,490.5z"/>
	<path class="st2" d="M897.5,510.4c0.1,0.5-2.7,2.9-8.5,6.9c-4,2.8-6.7,4.7-8.2,5.5c-3.9,2.2-7.6,3.4-11,3.4
		c-4.5,0.2-7.9-0.6-10.2-2.3c-2.3-1.7-3.8-4.3-4.4-8c-0.7,1-1.3,2-1.8,2.9c-0.6,0.9-1.1,1.8-1.6,2.6c-2.6,4.2-5.1,8.2-7.6,11.9
		c-2.5,3.7-5,7.2-7.6,10.5c-7.4,9.8-12.5,14.8-15.5,14.8c-1.4,0-2.1-0.8-2.1-2.4c0-4.8,8.1-16.7,24.3-35.7c1.8-2.2,4.1-4.8,6.9-8
		c2.8-3.2,6.2-6.8,10.1-11c2.1-3.7,3.7-6.4,4.9-8.3c1.1-1.9,1.8-2.9,1.9-3.1c0.4-0.4,1.3-0.6,2.7-0.5c1.5,0.1,2.2,0.4,2.1,0.7
		c-0.1,0.1-0.8,1.1-1.9,3c3.8-2.9,7.3-4.3,10.3-4.3c1.1,0,2,0.2,2.9,0.5c2.1,1,3.2,3.2,3.2,6.5c0,2.8-0.7,6-2,9.7
		c-0.6,1.6-1.2,3-1.8,4.4c-0.6,1.4-1.3,2.6-2,3.8c-2.6,4.1-5.6,7.2-9,9.5c1.7,0,3.7-0.5,5.9-1.3c3.6-1.4,7.2-3.6,10.7-6.4
		c6-4.9,8.5-6.9,7.6-6.2c0.5-0.5,0.9-0.7,1.3-0.7c0.7,0,1,0.3,1,0.9C897.8,509.9,897.7,510.2,897.5,510.4z M855.8,509.3
		c-3.7,3.9-7.1,8-10.4,12.2c-2.7,3.4-5.3,6.8-7.9,10.1c-2.6,3.3-5.2,6.7-7.9,10.1c-4.6,6.2-6.9,10-6.9,11.3c0,0.6,0.2,0.9,0.5,0.9
		c1.5,0,5.6-4.4,12.2-13.2c2.9-4,5.5-7.5,7.7-10.8c2.2-3.2,4.1-6.2,5.7-8.9c0.7-1.1,1.6-2.7,2.7-4.6
		C852.7,514.6,854.1,512.2,855.8,509.3z M879.4,491.2c-2.5,0-7.1,2.8-13.6,8.5l-8.6,13.3c-0.2,1.9,0.1,3.8,0.7,5.5
		c0.8,2.2,2.1,3.3,3.9,3.3c3.6,0,8-3.5,13.1-10.5c4.7-6.5,7.1-12.1,7.1-16.7C882,492.3,881.1,491.2,879.4,491.2z"/>
	<path class="st2" d="M934.4,507.7c0.6,0.5,0.4,1.3-0.5,2.3c-0.5,0.8-3.6,3.5-9.4,8.1c-7.6,5.3-14.4,8-20.4,8
		c-2.3,0-4.2-0.5-5.8-1.4c-2.5-1.6-3.7-4-3.7-7.2c0-5.3,2.8-10.9,8.5-16.8c3.5-3.5,7.3-6.4,11.6-8.7c4.3-2.3,7.8-3.4,10.7-3.4
		c2.7,0,4,0.8,4,2.4c0,1.6-1.4,4-4.1,7c-2.5,2.6-5,4.9-7.7,6.8c-4.6,3.3-9.5,5.5-14.7,6.6c-0.6,1.9-0.9,3.5-0.9,5c0,2.3,0.8,4,2.3,5
		c1.3,0.9,2.9,1.3,4.7,1.3c4,0,8.7-1.9,14.1-5.8c4.7-3.9,7.7-6.6,8.9-8.2C933.1,507.6,933.9,507.3,934.4,507.7z M925.9,490.5
		c-1.6,0-4,0.9-7,2.7c-3.2,1.9-6.2,4.3-9,7.1c-2.3,2.4-4.3,5.3-5.8,8.7c4.1-1.1,8.2-3.1,12.3-5.9c2.6-1.9,5.1-4,7.5-6.4
		c2.4-2.4,3.6-4.1,3.6-5.2C927.4,490.9,926.9,490.5,925.9,490.5z"/>
	<path class="st2" d="M983,490.3c-1,1.5-2.4,3.5-4.2,5.9c-1.8,2.4-4,5.4-6.5,9c-4.6,6.5-7.1,11.3-7.6,14.1c-0.4,1.8,0.1,2.7,1.4,2.7
		c0.7,0,1.7-0.4,3-1.1c1.3-0.7,2.6-1.6,3.8-2.6c2.3-1.7,4.4-3.5,6.4-5.2c2-1.7,3.9-3.5,5.5-5.2c0.5-0.6,1.1-0.9,1.6-0.9
		c0.5,0,0.7,0.2,0.7,0.6c0.1,0.5-0.1,1-0.5,1.4c-2.6,3.1-6.4,6.4-11.3,10c-2.7,2.2-5.2,3.8-7.5,4.9c-2.3,1-4.2,1.4-5.5,1.3
		c-3.2-0.4-4.8-2.3-4.6-5.6c0-0.6,0.1-1.2,0.3-1.9c0.6-2.2,2.4-5.3,5.5-9.3c-1.2,0.5-2.4,0.8-3.7,1c-1.3,0.2-2.5,0.2-3.6-0.1
		c-0.9,0.1-1.7,0.3-2.4,0.6c-0.7,0.3-1.3,0.6-1.8,1c-0.5,0.4-1.1,0.8-1.6,1.3c-0.5,0.5-1.1,1-1.7,1.5c-1.6,1.9-3,3.4-4.2,4.6
		c-1.2,1.2-2.2,2.2-3.1,3c-0.9,0.8-1.8,1.4-2.6,1.9c-0.8,0.5-1.6,1-2.4,1.4c-1.4,0.7-2.7,0.9-4.1,0.7c-1.3-0.2-2.6-0.7-3.6-1.6
		c-1.1-0.8-1.9-1.9-2.6-3.2c-0.6-1.3-0.9-2.8-0.8-4.4c0.1-1.2,0.4-2.5,0.9-3.9c0.4-1.4,1.4-2.8,2.9-4.2c0.8-0.5,1.6-1,2.4-1.3
		c0.8-0.3,1.6-0.4,2.3-0.3c0.7,0.1,1.3,0.5,1.8,1.1c0.5,0.6,0.6,1.6,0.6,2.9c-0.1,1-0.4,2-1.1,2.9c-0.7,0.9-1.7,1.4-3,1.4
		c-0.7,0-1.2,0.2-1.7,0.5c-0.5,0.4-0.9,0.8-1.3,1.4c-0.4,0.8-0.5,1.8-0.2,2.9c0.3,1.1,0.9,2,1.7,2.7c0.8,0.7,1.9,1,3.2,0.9
		c1.3-0.1,2.7-0.9,4.3-2.5c0.9-1,1.7-1.8,2.3-2.4c0.6-0.6,1.2-1.2,1.8-1.8c0.6-0.6,1.2-1.2,1.8-1.9c0.7-0.7,1.5-1.5,2.4-2.5
		c0.2-0.2,0.6-0.6,1.1-0.9c0.5-0.4,1-0.8,1.6-1.2c0.6-0.4,1.2-0.8,1.8-1.3c0.6-0.4,1.2-0.8,1.8-1.1c-1.4-1.1-2.3-2.6-2.5-4.7
		c-0.2-1.3-0.1-2.6,0.2-3.8c0.3-1.2,0.9-2.4,1.6-3.7c1-1.4,2.1-2.6,3.4-3.7c1.2-1.1,2.6-2,4.2-2.7c3.3-1.3,6.2-1.5,8.8-0.8
		c3,1,4.7,3.1,5.2,6.1v2c0.1-0.1,0.3-0.3,0.4-0.5c0.1-0.2,0.3-0.4,0.5-0.5c0.8-0.8,1.5-1.5,1.8-1.9c0.4-0.5,0.9-0.9,1.4-1.4
		c0.1-0.1,0.2-0.3,0.5-0.6c0.3-0.3,0.6-0.6,0.9-0.9c0.3-0.3,0.6-0.5,0.8-0.7c0.2-0.2,0.3-0.2,0.2-0.2c0.2-0.1,0.5-0.2,0.9-0.2
		c0.4,0,0.7,0,1.1,0c0.3,0.1,0.6,0.2,0.8,0.3C983,489.9,983.1,490.1,983,490.3z M970.3,499.6c0.5-1.1,0.8-2.1,1-3
		c0.2-0.9,0.3-1.8,0.1-2.8c-0.1-1-0.4-1.8-0.9-2.4c-0.5-0.6-1.1-1-1.8-1.3c-1.9-0.5-4-0.1-6.3,1.2c-1,0.6-2,1.6-3.1,3.1
		c-1.1,1.4-2,3-2.7,4.6c-0.7,1.7-1,3.3-1,4.8c0,1.6,0.7,2.7,2,3.5c2.6,0.8,5.5-0.1,8.6-2.9L970.3,499.6z"/>
</g>
</svg>
