<?xml version="1.0" encoding="UTF-8" standalone="no"?>
<!-- Created with Inkscape (http://www.inkscape.org/) -->

<svg
   xmlns:dc="http://purl.org/dc/elements/1.1/"
   xmlns:cc="http://creativecommons.org/ns#"
   xmlns:rdf="http://www.w3.org/1999/02/22-rdf-syntax-ns#"
   xmlns:svg="http://www.w3.org/2000/svg"
   xmlns="http://www.w3.org/2000/svg"
   xmlns:sodipodi="http://sodipodi.sourceforge.net/DTD/sodipodi-0.dtd"
   xmlns:inkscape="http://www.inkscape.org/namespaces/inkscape"
   width="96.63279mm"
   height="61.29734mm"
   viewBox="0 0 342.39965 217.1953"
   id="svg2"
   version="1.1"
   inkscape:version="0.91 r13725"
   sodipodi:docname="logo6.svg">
  <defs
     id="defs4" />
  <sodipodi:namedview
     id="base"
     pagecolor="#ffffff"
     bordercolor="#666666"
     borderopacity="1.0"
     inkscape:pageopacity="0.0"
     inkscape:pageshadow="2"
     inkscape:zoom="1.979899"
     inkscape:cx="33.390951"
     inkscape:cy="174.27466"
     inkscape:document-units="px"
     inkscape:current-layer="layer1"
     showgrid="false"
     fit-margin-top="0"
     fit-margin-left="0"
     fit-margin-right="0"
     fit-margin-bottom="0"
     inkscape:window-width="1920"
     inkscape:window-height="1001"
     inkscape:window-x="-9"
     inkscape:window-y="-9"
     inkscape:window-maximized="1" />
  <metadata
     id="metadata7">
    <rdf:RDF>
      <cc:Work
         rdf:about="">
        <dc:format>image/svg+xml</dc:format>
        <dc:type
           rdf:resource="http://purl.org/dc/dcmitype/StillImage" />
        <dc:title></dc:title>
      </cc:Work>
    </rdf:RDF>
  </metadata>
  <g
     inkscape:label="Layer 1"
     inkscape:groupmode="layer"
     id="layer1"
     transform="translate(-159.64087,-340.45913)">
    <path
       style="fill:#ffffff"
       d="m 287.85712,556.81942 c -15.12719,-3.15041 -23.90329,-7.32189 -31.20074,-14.8304 -2.92121,-3.00571 -6.05256,-7.32546 -6.95853,-9.59945 -0.90596,-2.27397 -1.73037,-8.19645 -1.83202,-8.35945 -0.10163,-0.16301 -3.17205,2.86717 -6.38663,5.86072 -10.69391,9.95864 -25.63836,14.8127 -41.39561,7.68867 -17.23909,-7.794 -31.87049,-10.65037 -37.93365,-7.40546 -7.5744,4.05369 3.36437,-10.94956 14.67258,-20.12441 20.58622,-16.70252 44.73822,-18.40598 61.36355,-8.66288 3.08397,1.80732 8.79906,5.55187 9.20814,5.70217 0.40906,0.1503 1.08682,-8.08629 2.37912,-11.75592 2.97835,-8.45733 7.38971,-15.98619 14.4344,-24.63517 l 8.41029,-8.24634 -4.60893,-0.71428 c -1.92268,-0.29798 -7.23548,-0.52892 -10.88222,-1.61189 -10.16727,-3.01935 -17.74951,-8.60114 -27.17264,-27.74985 -5.86252,-11.9132 -9.10795,-16.98682 -12.99324,-20.3125 -2.84838,-2.4381 -5.92137,-4.43291 -6.82887,-4.43291 -2.38745,0 -2.02639,-2.08309 0.5375,-3.10104 1.20312,-0.47767 7.63768,-1.18026 14.29902,-1.56131 20.29885,-1.16115 31.92885,3.27666 44.2552,13.53476 8.20264,6.8263 12.81942,13.79206 15.03855,22.69009 0.81444,3.26563 -0.0368,12.00893 0.29098,12.00893 0.32775,0 11.78253,-9.49293 18.03446,-13.67477 6.25191,-4.18184 15.22844,-9.54787 19.94782,-11.92452 l 15.17889,-7.03225 -5.05972,-2.12041 -5.71686,-2.39579 c -7.35009,-3.08024 -11.48352,-9.57217 -13.42138,-16.24512 -0.69879,-2.40625 -3.77366,-11.21709 -3.77749,-20.88919 -0.007,-19.04361 -1.86732,-28.64973 -6.43002,-33.21243 -1.3944,-1.3944 -2.24284,-2.82773 -1.8854,-3.18517 0.35743,-0.35744 5.1531,0.84982 10.65702,2.68279 29.60918,9.86076 46.52656,34.71694 44.24748,58.7365 -0.31276,3.29618 -3.98767,8.42077 -2.25076,9.42213 1.79983,1.03763 9.04186,-2.11502 10.36194,-2.49873 23.10159,-6.71491 44.76532,-4.85197 49.07764,3.20569 2.11618,3.95412 3.24185,9.22283 4.2968,5.01959 1.14139,-4.54768 6.99574,-17.70299 12.09006,-21.46145 7.62107,-5.62264 19.3661,-7.0727 34.6819,-4.28189 13.41524,2.4445 24.94483,2.11089 31.70887,-0.9175 7.35403,-3.29255 7.47186,-2.45181 1.3666,9.75189 -6.49299,12.97871 -20.46708,27.35476 -32.18223,33.10794 -10.31681,5.06647 -21.1798,7.36774 -29.3517,6.218 -8.33739,-1.17301 -12.74479,-9.45373 -16.95556,-11.66355 l -3.50681,-1.84039 -1.78535,4.2511 c -2.1218,5.05221 -7.21638,10.66696 -11.89788,13.1127 -4.63844,2.42323 -12.82935,2.25505 -15.40061,-0.31621 -2.65495,-2.65495 -1.62543,-8.51696 2.23277,-12.71323 3.31499,-3.60546 14.1112,-8.92767 18.14499,-8.94495 7.35064,-0.0315 3.3349,-9.08607 -5.03589,-11.3548 -16.91087,-4.58335 -53.1563,7.983 -81.66878,28.3147 -24.01217,17.1226 -41.78479,36.68674 -50.44983,55.53528 -3.48191,7.57399 -4.4045,11.29787 -4.83604,19.51972 -0.64697,12.32638 0.79893,17.20673 7.27889,24.56834 11.26449,12.79713 36.52285,16.66034 64.98493,9.9393 l 9.375,-2.21381 0.72978,-7.47296 c 0.40139,-4.11014 1.63828,-9.2176 2.74865,-11.34993 2.96998,-5.70344 10.12248,-11.45206 16.19265,-13.0144 13.06154,-3.36176 18.04793,-5.5823 22.51642,-10.02699 l 4.6875,-4.66255 -0.0149,7.66545 c -0.0295,15.20772 -7.56594,33.90959 -16.6099,41.21752 -7.55444,6.10431 -10.48772,7.35596 -17.48655,7.46153 -4.94866,0.0746 -6.67517,-0.46207 -8.4208,-2.61782 -2.0955,-2.58784 -2.44481,-2.62863 -7.64437,-0.89264 -13.16408,4.3951 -44.42295,7.10739 -55.44854,4.8112 z m 111.6123,-117.80634 c 5.49187,-2.80293 8.362,-5.7588 10.14476,-10.4478 1.12121,-2.94902 0.99135,-3.43521 -0.91758,-3.43521 -3.91718,0 -15.3704,6.47458 -16.72938,9.45721 -1.43005,3.13863 -0.60943,6.79279 1.52546,6.79279 0.73647,0 3.426,-1.06515 5.97674,-2.36699 z"
       id="path3347"
       inkscape:connector-curvature="0"
       sodipodi:nodetypes="csscssssscsscssssssssssssccsscssssssssssssssscssssssssssscsssscsssssccssssss" />
  </g>
</svg>
