<?xml version="1.0" encoding="UTF-8" standalone="no"?>
<svg
   xmlns:dc="http://purl.org/dc/elements/1.1/"
   xmlns:cc="http://creativecommons.org/ns#"
   xmlns:rdf="http://www.w3.org/1999/02/22-rdf-syntax-ns#"
   xmlns:svg="http://www.w3.org/2000/svg"
   xmlns="http://www.w3.org/2000/svg"
   version="1.1"
   id="svg2"
   viewBox="0 0 580.78532 314.5087"
   height="88.761345mm"
   width="163.91052mm">
  <defs
     id="defs4" />
  <metadata
     id="metadata7">
    <rdf:RDF>
      <cc:Work
         rdf:about="">
        <dc:format>image/svg+xml</dc:format>
        <dc:type
           rdf:resource="http://purl.org/dc/dcmitype/StillImage" />
        <dc:title></dc:title>
      </cc:Work>
    </rdf:RDF>
  </metadata>
  <g
     transform="translate(-64.214677,-371.94049)"
     id="layer1">
    <path
       id="path3347"
       d="m 384.63581,665.98412 c -1.20119,-33.60934 -8.63417,-69.97324 -19.7553,-96.64757 -9.22469,-22.12569 -28.15765,-52.1962 -43.22911,-68.65922 -16.95193,-18.51708 -43.61664,-39.15961 -63.37676,-49.06322 -8.66418,-4.3424 -8.9451,-4.53382 -8.01633,-5.4626 0.93394,-0.93395 17.46919,5.75857 30.92674,12.51735 6.15576,3.09162 17.99152,10.20242 26.30169,15.80178 41.36701,27.87299 79.55255,77.84136 93.50361,122.35585 3.50411,11.18079 7.86001,32.72203 9.95289,49.22005 l 0.93176,7.34505 7.5,-12.13408 c 21.21653,-34.3257 45.13054,-58.36016 66.41535,-66.74985 9.18597,-3.62077 24.13207,-6.45251 33.21945,-6.29387 l 7.8652,0.1373 -11.25,2.2398 c -13.98693,2.78471 -26.3497,7.39406 -34.06024,12.69905 -16.00499,11.01173 -33.31024,34.26049 -47.29352,63.53655 -14.87713,31.14746 -11.36919,27.14128 -29.27124,33.42866 -8.59375,3.01822 -16.52219,5.77429 -17.61874,6.12461 -1.7518,0.55968 -2.08496,-1.91536 -2.74545,-20.39564 z M 501.5177,628.2126 c -3.63401,-1.25525 -9.72016,-4.42619 -13.52476,-7.04651 -8.31265,-5.72515 -20.71912,-19.09556 -20.21553,-21.78625 0.54733,-2.92441 22.64239,-14.62067 35.34759,-18.71163 12.24662,-3.9433 24.377,-5.99147 43.75,-7.38706 l 12.5,-0.90047 -5.22206,-2.75637 c -7.83624,-4.1362 -25.53308,-8.89725 -36.39506,-9.7915 -12.69668,-1.0453 -26.862,1.19199 -41.05584,6.48442 -6.28263,2.3426 -11.767,4.25926 -12.1875,4.25926 -3.9022,0 6.90081,-14.75284 17.11682,-23.37513 15.13643,-12.7751 32.14145,-18.46173 55.24364,-18.47399 26.55985,-0.0141 51.68646,8.63341 76.25,26.24197 12.58729,9.02329 31.875,27.77349 31.875,30.9867 0,2.16779 -0.58409,2.31121 -5.9375,1.45794 -19.45039,-3.10015 -37.86771,3.45277 -72.8125,25.90686 -24.5083,15.74802 -47.16426,20.96006 -64.7323,14.89176 z M 235.625,538.23509 C 219.92197,534.0909 209.0455,528.81701 196.1282,519.08354 183.84717,509.82951 176.87554,501.91469 157.21579,474.90665 137.35472,447.62208 132.04861,441.16022 120.491,430.1827 103.48579,414.03102 88.125639,405.6452 73.648859,404.6094 c -4.79144,-0.34283 -9.02155,-1.12467 -9.40025,-1.73741 -0.99681,-1.61287 20.16398,-11.25764 37.755761,-17.20852 78.72897,-26.63213 160.23038,-13.85689 208.79057,32.72765 15.96593,15.31638 26.13137,32.20379 31.78081,52.79616 3.81681,13.91242 3.23591,14.5453 -6.32575,6.89156 -28.91728,-23.14714 -67.60348,-40.68615 -100.625,-45.61996 -13.25707,-1.98077 -33.99041,-2.48584 -36.50224,-0.88922 -0.92371,0.58714 4.85299,4.04684 15,8.98359 39.02795,18.98796 63.65285,36.23548 92.47104,64.76758 l 14.71881,14.57269 -2.84381,2.1974 c -5.26529,4.06848 -21.52588,11.95807 -30.3438,14.72272 -12.57345,3.94209 -40.12255,4.688 -52.5,1.42145 z"
       style="fill:#ffffff" />
  </g>
</svg>
