<?xml version="1.0" encoding="utf-8"?>
<!-- Generator: Adobe Illustrator 19.0.1, SVG Export Plug-In . SVG Version: 6.00 Build 0)  -->
<svg version="1.1" id="Слой_1" xmlns="http://www.w3.org/2000/svg" xmlns:xlink="http://www.w3.org/1999/xlink" x="0px" y="0px"
	 viewBox="388.4 34.7 481.9 382.3" style="enable-background:new 388.4 34.7 481.9 382.3;" xml:space="preserve">
<style type="text/css">
	.st0{display:none;}
	.st1{display:inline;}
	.st2{fill:#FFFFFF;}
</style>
<g id="Слой_5" class="st0">
	<rect x="191.9" y="-5.2" class="st1" width="981.6" height="574.3"/>
</g>
<g id="Слой_3">
	<g transform="translate(0.000000,241.000000) scale(0.100000,-0.100000)">
		<path id="node1_2_" class="st2" d="M7088.4,2023.8c-36.6-49.9-36.6-128,0-168c21.6-24.9,23.3-39.9,10-88.1
			c-10-31.6-13.3-74.8-8.3-94.8c10-38.2,68.2-148,86.5-163c53.2-43.2,201.2-337.6,179.6-357.5c-3.3-5-29.9,1.7-56.5,15
			s-109.8,33.3-186.2,41.6c-76.5,10-166.3,24.9-199.5,34.9c-74.8,20-169.6,76.5-169.6,99.8c0,8.3-15,16.6-33.3,16.6
			c-103.1,0,33.3-121.4,187.9-168c64.9-20,121.4-38.2,124.7-39.9c1.7-1.7-49.9-56.5-116.4-123.1c-98.1-96.4-138-123.1-212.9-146.3
			c-49.9-15-98.1-33.3-108.1-41.6c-20-16.6,61.5-16.6,154.7,1.7c73.2,15,73.2,15,59.9-29.9c-16.6-64.9-10-119.7,21.6-154.7
			c34.9-39.9,46.6-38.2,68.2,11.6c29.9,64.9,23.3,103.1-21.6,138c-53.2,41.6-51.6,53.2,5,104.8c24.9,23.3,73.2,73.2,109.8,111.4
			c73.2,79.8,171.3,116.4,227.8,86.5c154.7-83.1,202.9-226.2,129.7-377.5c-45.2-93.1-125-134.6-321.2-164.6
			c-191.2-29.9-365.8-111.4-449-209.5c-33.3-38.2-59.9-74.8-59.9-83.1c0-39.9-29.9-3.3-54.9,66.5c-38.2,104.8-128,191.2-299.3,287.7
			c-168,94.8-237.8,179.6-221.2,269.4c15,78.2,74.8,164.6,134.7,194.6c206.2,104.8,292.7,196.2,314.3,332.6
			c15,98.1,31.6,114.7,108.1,104.8c44.9-6.7,69.8,0,91.5,20c64.9,64.9-24.9,99.8-106.4,41.6c-59.9-43.2-61.5-34.9-11.6,41.6
			c29.9,48.2,46.6,58.2,96.4,58.2c66.5,0,106.4,33.3,118.1,104.8c8.3,41.6,5,44.9-44.9,44.9c-56.5,0-124.7-56.5-124.7-104.8
			c0-23.3-58.2-78.2-84.8-78.2c-5,0-8.3,33.3-8.3,74.8c1.7,49.9-8.3,83.1-28.3,103.1c-29.9,28.3-31.6,28.3-54.9-1.7
			c-33.3-44.9-29.9-66.5,18.3-123.1c46.6-56.5,51.6-81.5,20-128c-13.3-18.3-36.6-78.2-53.2-133c-31.6-104.8-99.8-186.2-204.5-246.1
			l-53.2-29.9v79.8c0,136.4-26.6,197.9-134.7,304.3c-53.2,53.2-98.1,109.8-98.1,123.1c0,15-6.7,26.6-16.6,26.6
			c-28.3,0-18.3-96.4,18.3-166.3c20-36.6,41.6-66.5,49.9-66.5c28.3,0,114.7-138,114.7-181.3c0-24.9-18.3-76.5-41.6-118.1
			c-23.3-41.6-58.2-106.4-76.5-144.7c-18.3-39.9-36.6-71.5-39.9-71.5s-31.6,15-61.5,33.3c-31.6,18.3-108.1,38.2-172.9,44.9
			l-114.7,13.3l1.7,71.5c0,38.2,13.3,83.1,26.6,98.1c51.6,59.9,53.2,242.8,3.3,312.6c-33.3,44.9-44.9,21.6-26.6-48.2
			c10-34.9,11.6-59.9,1.7-59.9c-8.3,0-15,6.7-15,16.6c0,33.3-81.5,69.8-133,58.2c-59.9-13.3-61.5-23.3-15-73.2
			c31.6-33.3,46.6-36.6,108.1-26.6c71.5,10,73.2,10,73.2-36.6c1.7-53.2-99.8-269.4-126.4-271.1c-46.6-1.7-121.4,121.4-172.9,279.4
			c-28.3,93.1-48.2,128-78.2,141.3c-21.6,10-51.6,43.2-63.2,73.2c-26.6,64.9-118.1,111.4-181.3,94.8c-39.9-10-39.9-11.6-15-69.8
			c34.9-86.5,64.9-106.4,149.7-93.1c49.9,6.7,71.5,5,71.5-8.3c0-11.6,15-39.9,31.6-64.9c18.3-24.9,41.6-88.1,49.9-141.3
			c23.3-133,59.9-201.2,146.3-277.7c84.8-74.8,81.5-79.8-64.9-98.1c-46.6-5-88.1-18.3-91.5-28.3c-10-29.9,139.7-16.6,224.5,18.3
			c79.8,33.3,199.5,24.9,261.1-15c20-13.3,59.9-74.8,89.8-138c31.6-61.5,74.8-133,96.4-158c39.9-41.6,39.9-79.8,1.7-79.8
			c-10,0-59.9-36.6-113.1-83.1c-256.1-221.2-462.3-242.8-653.5-68.2c-93.1,86.5-136.4,191.2-121.4,297.7
			c33.3,229.5,33.3,249.4-13.3,344.2c-23.3,51.6-43.2,103.1-43.2,116.4c0,13.3-8.3,24.9-18.3,24.9c-24.9,0-6.7-101.4,34.9-192.9
			c18.3-43.2,24.9-78.2,15-91.5c-8.3-13.3-15-53.2-15-91.5c0-36.6-5-73.2-11.6-79.8c-6.7-5-41.6,21.6-78.2,59.9
			c-38.2,39.9-83.1,79.8-101.4,89.8c-29.9,16.6-31.6,23.3-10,74.8c38.2,99.8,39.9,134.7,10,192.9c-16.6,29.9-34.9,54.9-39.9,54.9
			s-26.6-24.9-48.2-54.9c-49.9-73.2-48.2-136.4,5-171.3c48.2-31.6,58.2-83.1,13.3-64.9c-16.6,6.7-44.9,16.6-63.2,21.6
			c-29.9,6.7-29.9,5,6.7-36.6c23.3-23.3,49.9-43.2,61.5-43.2c23.3,0,156.3-146.3,156.3-171.3c0-10,10-29.9,23.3-43.2
			c11.6-15,38.2-63.2,56.5-106.4c33.3-73.2,33.3-79.8,6.7-88.1c-15-5-71.5-28.3-123.1-51.6c-94.8-43.2-121.4-76.5-154.7-182.9
			c-13.3-48.2-61.5-49.9-124.7-3.3c-51.6,39.9-109.8,34.9-174.6-15l-36.8-26.6l68.2-46.6c38.2-24.9,73.2-46.6,79.8-46.6
			c5,0,33.3,20,61.5,43.2c31.6,26.6,64.9,39.9,83.1,34.9c33.3-8.3,86.5,39.9,138,121.4c26.6,41.6,176.3,133,219.5,133
			c13.3,0,41.6-21.6,63.2-48.2c49.9-63.2,181.3-163,254.4-194.6c31.6-13.3,58.2-29.9,58.2-36.6c0-28.3-94.8-103.1-174.6-138
			c-64.9-29.9-124.7-39.9-269.4-44.9C4710.3-90,4682-94.9,4682-118.2c0-20,20-28.3,86.5-31.6c48.2-3.3,93.1-13.3,98.1-23.3
			c6.7-11.6,15-11.6,21.6,1.7c6.7,10,53.2,18.3,103.1,18.3c88.1,0,91.5-1.7,81.5-36.6c-15-49.9-86.5-174.6-108.1-187.9
			c-8.3-5-24.9-24.9-34.9-44.9c-15-26.6-13.3-31.6,5-21.6c101.4,58.2,144.7,116.4,209.5,277.7c11.6,28.3,36.6,49.9,64.9,56.5
			c24.9,6.7,64.9,24.9,86.5,43.2c54.9,41.6,68.2,38.2,68.2-18.3c0-26.6,15-64.9,31.6-86.5l31.6-39.9l21.6,48.2
			c21.6,44.9,20,49.9-33.3,94.8l-56.5,46.6l51.6,64.9c39.9,49.9,84.8,78.2,197.9,124.7c161.3,66.5,327.6,111.4,425.7,111.4
			c128,0,239.5-81.5,286-214.5c33.3-96.4,31.6-138-10-234.5c-61.5-143-138-177.9-525.5-241.1c-199.5-31.6-306-74.8-434-169.6
			c-123.1-94.8-201.2-194.6-410.7-528.8c-231.1-369.2-251.1-384.1-389.1-291c-109.8,74.8-196.2,69.8-291-16.6
			c-66.5-61.5-79.8-66.5-168-66.5c-68.2,0-111.4-10-151.3-34.9c-31.6-18.3-56.5-39.9-56.5-46.6c0-11.6,229.5-66.5,339.2-79.8
			c34.9-5,94.8,1.7,129.7,13.3c59.9,20,78.2,18.3,169.6-15c126.4-44.9,176.3-44.9,342.6-1.7c149.7,38.2,194.6,31.6,382.5-54.9
			c154.7-73.2,312.6-74.8,470.6-6.7l111.4,48.2l99.8-26.6c121.4-34.9,242.8-34.9,299.3-3.3c23.3,13.3,69.8,23.3,104.8,24.9
			c78.2,0,74.8,24.9-6.7,79.8c-48.2,33.3-69.8,38.2-141.3,28.3c-84.8-10-84.8-10-128,56.5c-56.5,84.8-103.1,96.4-211.2,58.2
			c-63.2-23.3-91.5-26.6-113.1-13.3c-114.7,73.2-13.3,460.6,156.3,598.6c53.2,44.9,109.8,69.8,217.8,96.4
			c174.6,44.9,279.4,89.8,380.8,163c73.2,53.2,83.1,54.9,229.5,54.9c143-1.7,342.6-46.6,402.4-93.1c34.9-28.3,244.4-18.3,339.2,15
			c91.5,31.6,94.8,31.6,153,1.7c34.9-18.3,74.8-49.9,91.5-74.8c16.6-23.3,58.2-73.2,91.5-111.4c73.2-83.1,78.2-114.7,21.6-144.7
			c-58.2-29.9-68.2-88.1-33.3-168c34.9-74.8,44.9-78.2,91.5-31.6c36.6,36.6,48.2,171.3,16.6,191.2c-8.3,5-16.6,24.9-16.6,43.2
			c0,31.6,1.7,31.6,54.9,5c28.3-15,58.2-36.6,64.9-46.6c8.3-11.6,13.3-8.3,13.3,10c0,16.6-10,36.6-20,44.9
			c-11.6,10-46.6,36.6-76.5,61.5c-29.9,23.3-73.2,76.5-96.4,116.4c-23.3,39.9-73.2,99.8-111.4,131.4c-36.6,31.6-64.9,61.5-59.9,64.9
			c3.3,3.3,51.6,34.9,106.4,71.5c99.8,64.9,153,86.5,324.3,123.1c88.1,20,89.8,20,51.6,44.9c-24.9,16.6-68.2,24.9-128,21.6
			c-99.8-5-123.1,24.9-49.9,64.9c23.3,11.6,44.9,31.6,49.9,44.9c11.6,29.9-5,104.8-23.3,104.8c-33.3,0-83.1-91.5-83.1-151.3
			c0-56.5-5-64.9-44.9-74.8c-61.5-15-149.7-59.9-272.7-139.7c-84.8-54.9-118.1-66.5-184.6-66.5c-43.2,0-79.8,3.3-79.8,8.3
			c0,3.3,18.3,33.3,39.9,64.9c21.6,33.3,44.9,86.5,51.6,121.4c16.6,93.1,74.8,184.6,141.3,226.2c73.2,44.9,124.7,91.5,113.1,103.1
			c-16.6,16.6-216.2-98.1-251.1-144.7l-33.3-43.2l-79.8,79.8c-89.8,89.8-88.1,84.8-64.9,166.3c15,51.6,13.3,54.9-10,29.9
			C7200,109.7,7190,71.4,7190,21.5c0-64.9,10-88.1,51.5-131.4c78.2-79.8,89.8-143,44.9-229.5c-54.9-104.8-79.8-101.4-66.5,8.3
			c10,86.5,8.3,94.8-34.9,134.7c-24.9,23.3-51.6,43.2-58.2,43.2c-21.6,0-54.9-129.7-43.2-172.9c8.3-31.6,24.9-46.6,59.9-54.9
			c28.3-5,49.9-20,49.9-33.3c0-29.9-29.9-24.9-168,24.9c-49.9,20-148,39.9-216.2,46.6l-123.1,10l-5,222.8
			c-5,187.9-1.7,229.5,23.3,271.1c43.2,73.2,163,129.7,350.9,166.3c269.4,51.6,374.2,111.4,445.7,249.4
			c43.2,88.1,121.4,163,184.6,177.9c73.2,18.3,129.7-10,239.5-124.7c131.4-136.4,184.6-172.9,287.7-201.2
			c64.9-16.6,78.2-28.3,78.2-59.9c0-20-6.7-43.2-16.6-48.2c-8.3-5-16.6-34.9-16.6-63.2c0-41.6,13.3-64.9,59.9-101.4
			c71.5-56.5,89.8-41.6,89.8,69.8c0,68.2-41.6,136.4-83.1,136.4c-8.3,0-16.6,11.6-16.6,24.9c0,16.6,18.3,24.9,58.2,24.9
			c31.6,0,58.2,8.3,58.2,16.6c0,10-18.3,16.6-39.9,16.6c-20,0-59.9,6.7-86.5,15s-69.8,20-96.4,26.6
			c-31.6,6.7-101.4,64.9-196.2,161.3c-81.5,83.1-144.7,153-143,154.7c3.3,1.7,43.2,23.3,88.1,48.2c98.1,53.2,154.7,99.8,201.2,168
			c48.2,71.5,108.1,237.8,89.8,249.4c-29.9,18.3-16.6,68.2,24.9,108.1c53.2,49.9,56.5,146.3,8.3,191.2
			c-29.9,28.3-36.6,28.3-59.9,6.7c-36.6-38.2-48.2-141.3-23.3-216.2c20-59.9,18.3-73.2-18.3-153c-21.6-46.6-44.9-88.1-51.6-91.5
			c-8.3-3.3-13.3-15-13.3-26.6s-26.6-49.9-58.2-86.5l-59.9-64.9l10,66.5c8.3,71.5-8.3,106.4-68.2,138
			c-44.9,23.3-56.5,11.6-56.5-53.2c0-61.5,11.6-81.5,63.2-108.1c20-10,36.6-26.6,36.6-34.9c0-26.6-88.1-63.2-199.5-83.1
			c-58.2-10-126.4-29.9-153-43.2c-24.9-13.3-48.2-23.3-49.9-23.3c-3.3,0-3.3,48.2,0,109.8c5,59.9-1.7,153-11.6,207.9
			c-20,96.4-18.3,101.4,26.6,169.6c63.2,93.1,104.8,101.4,104.8,20c0-79.8,21.6-118.1,83.1-138c46.6-16.6,49.9-15,49.9,21.6
			c0,66.5-31.6,124.7-83.1,154.7c-59.9,34.9-61.5,46.6-10,101.4c44.9,49.9,79.8,141.3,64.9,177.9c-15,38.2-44.9,18.3-56.5-36.6
			c-13.3-68.2-26.6-86.5-134.7-187.9l-96.4-89.8l-53.2,54.9c-29.9,28.3-94.8,79.8-144.7,113.1c-86.5,56.5-154.7,158-161.3,237.8
			c-1.7,15-6.7,44.9-11.6,68.2c-8.3,29.9-1.7,49.9,21.6,71.5c44.9,39.9,41.6,104.8-5,164.6l-39.9,48.2L7088.4,2023.8z"/>
		<path id="node2_2_" class="st2" d="M5656.6,1920.7c-28.3-106.4,0-168,86.5-184.6l53.2-8.3v71.5c0,73.2-20,101.4-93.1,139.7
			C5671.6,1955.6,5664.9,1952.3,5656.6,1920.7z"/>
		<path id="node3_2_" class="st2" d="M7828.4,1870.8c-43.2-44.9-53.2-68.2-53.2-128c0-41.6,6.7-66.5,13.3-54.9
			c6.7,10,33.3,26.6,58.2,36.6c53.2,20,78.2,74.8,66.5,139.7C7899.9,1930.7,7886.6,1930.7,7828.4,1870.8z"/>
		<path id="node4_2_" class="st2" d="M6877.2,1837.5c0-54.9,66.5-111.4,129.7-111.4c44.9,0,53.2,6.7,53.2,41.6
			c0,59.9-54.9,108.1-124.7,108.1C6885.5,1875.8,6877.2,1870.8,6877.2,1837.5z"/>
		<path id="node5_2_" class="st2" d="M7219.7,1840.9c-56.5-44.9-58.2-108.1-1.7-121.4c51.6-13.3,103.1,11.6,114.7,56.5
			c5,18.3,15,48.2,20,66.5c6.7,28.3,1.7,33.3-39.9,33.3C7286.2,1875.8,7244.7,1860.8,7219.7,1840.9z"/>
		<path id="node6_2_" class="st2" d="M5969.2,1830.9c-20-3.3-51.6-24.9-71.5-44.9c-29.9-31.6-34.9-51.6-24.9-99.8
			c8.3-44.9,16.6-59.9,34.9-53.2c13.3,5,29.9,10,36.6,10c38.2,0,84.8,73.2,84.8,133c0,36.6-5,64.9-11.6,64.9
			C6009.1,1839.2,5987.5,1834.2,5969.2,1830.9z"/>
		<path id="node7_2_" class="st2" d="M7592.2,1787.7c0-44.9,11.6-68.2,54.9-104.8l53.2-44.9l5,71.5c5,76.5-11.6,104.8-74.8,124.7
			C7595.5,1844.2,7592.2,1839.2,7592.2,1787.7z"/>
		<path id="node8_2_" class="st2" d="M5390.5,1719.5c-13.3-69.8-1.7-101.4,48.2-123.1c31.6-15,39.9-13.3,48.2,6.7
			c18.3,48.2,10,101.4-18.3,126.4C5410.5,1777.7,5400.5,1777.7,5390.5,1719.5z"/>
		<path id="node9_2_" class="st2" d="M5239.2,1702.8c-76.5-33.3-96.4-66.5-84.8-134.7c10-51.6,16.6-58.2,48.2-48.2
			c69.8,20,111.4,74.8,111.4,143C5314,1732.8,5310.7,1734.4,5239.2,1702.8z"/>
		<path id="node10_2_" class="st2" d="M6175.4,1717.8c-3.3-5-5-31.6,0-58.2c11.6-79.8,153-139.7,153-64.9
			C6328.4,1654.6,6210.3,1751.1,6175.4,1717.8z"/>
		<path id="node11_2_" class="st2" d="M7263,1646.3l-38.2-29.9l59.9-28.3c66.5-31.6,109.8-20,141.3,36.6c11.6,24.9,10,33.3-10,41.6
			C7367.7,1684.6,7301.2,1676.2,7263,1646.3z"/>
		<path id="node12_2_" class="st2" d="M7873.3,1644.6c-38.2-31.6-39.9-31.6-8.3-66.5c44.9-49.9,126.4-46.6,176.3,6.7
			c41.6,44.9,41.6,44.9-11.6,73.2C7976.4,1684.6,7916.5,1679.6,7873.3,1644.6z"/>
		<path id="node13_2_" class="st2" d="M6034.1,1639.7c-28.3-34.9-38.2-86.5-23.3-111.4c13.3-20,21.6-20,59.9,5
			c31.6,21.6,41.6,39.9,38.2,73.2C6103.9,1654.6,6060.7,1672.9,6034.1,1639.7z"/>
		<path id="node14_2_" class="st2" d="M7492.4,1604.7c0-43.2,11.6-68.2,43.2-93.1c64.9-51.6,101.4-44.9,109.8,16.6
			c10,63.2-26.6,108.1-98.1,123.1C7494.1,1661.3,7492.4,1661.3,7492.4,1604.7z"/>
		<path id="node15_2_" class="st2" d="M5591.7,1613c-39.9-43.2-36.6-103.1,3.3-103.1c44.9,0,84.8,44.9,84.8,93.1
			C5679.9,1651.3,5631.6,1657.9,5591.7,1613z"/>
		<path id="node16_2_" class="st2" d="M6953.7,1614.7c-23.3-11.6-49.9-36.6-59.9-54.9c-13.3-24.9-10-33.3,18.3-41.6
			c54.9-18.3,104.8,3.3,134.7,54.9c29.9,48.2,28.3,49.9-10,56.5C7015.2,1634.7,6978.6,1628,6953.7,1614.7z"/>
		<path id="node17_2_" class="st2" d="M6694.2,1533.2c-18.3-48.2-6.7-113.1,23.3-139.7c16.6-11.6,29.9-1.7,51.6,39.9
			c29.9,53.2,29.9,59.9,3.3,99.8C6735.8,1588.1,6714.2,1588.1,6694.2,1533.2z"/>
		<path id="node18_2_" class="st2" d="M5703.2,1509.9c-48.2-20-66.5-49.9-38.2-68.2c39.9-24.9,108.1-16.6,138,16.6
			c28.3,31.6,28.3,33.3-5,49.9C5759.7,1529.9,5751.4,1529.9,5703.2,1509.9z"/>
		<path id="node19_2_" class="st2" d="M6145.5,1463.4l-38.2-29.9l51.6-21.6c58.2-24.9,111.4-13.3,126.4,26.6
			C6306.8,1495,6207,1513.3,6145.5,1463.4z"/>
		<path id="node20_2_" class="st2" d="M7096.7,1466.7c-44.9-38.2-71.5-156.3-33.3-156.3c54.9,0,81.5,41.6,76.5,114.7l-5,71.5
			L7096.7,1466.7z"/>
		<path id="node21_2_" class="st2" d="M6853.9,1440.1c-26.6-38.2-36.6-129.7-13.3-129.7c29.9,0,86.5,54.9,86.5,83.1
			c0,41.6-16.6,83.1-34.9,83.1C6885.5,1476.7,6867.2,1460.1,6853.9,1440.1z"/>
		<path id="node22_2_" class="st2" d="M7813.4,1425.1c26.6-69.8,76.5-101.4,143-88.1c53.2,11.6,53.2,11.6,24.9,54.9
			c-41.6,63.2-74.8,83.1-134.7,84.8C7795.1,1476.7,7795.1,1476.7,7813.4,1425.1z"/>
		<path id="node23_2_" class="st2" d="M4895,1406.8c-41.6-44.9-44.9-54.9-21.6-66.5c56.5-31.6,128-8.3,169.6,58.2l38.2,61.5H5013
			C4958.2,1460.1,4934.9,1450.1,4895,1406.8z"/>
		<path id="node24_2_" class="st2" d="M6453.1,1443.4c-5-10,5-39.9,24.9-66.5c38.2-54.9,104.8-66.5,156.3-28.3
			c26.6,20,26.6,23.3-6.7,66.5c-28.3,34.9-49.9,44.9-99.8,44.9C6493,1460.1,6458.1,1451.7,6453.1,1443.4z"/>
		<path id="node25_2_" class="st2" d="M5606.7,1340.3c-59.9-84.8,3.3-111.4,79.8-34.9c33.3,33.3,39.9,46.6,23.3,58.2
			C5671.6,1386.9,5633.3,1378.6,5606.7,1340.3z"/>
		<path id="node26_2_" class="st2" d="M5812.9,1343.7c-18.3-18.3-33.3-39.9-33.3-48.2s-5-28.3-11.6-44.9
			c-10-24.9-3.3-26.6,51.6-18.3c81.5,13.3,109.8,38.2,109.8,96.4c0,39.9-6.7,48.2-41.6,48.2
			C5864.5,1376.9,5831.2,1361.9,5812.9,1343.7z"/>
		<path id="node27_2_" class="st2" d="M5297.4,1323.7c0-54.9,20-78.2,78.2-94.8c51.6-15,51.6-15,36.6,34.9
			C5388.9,1348.6,5297.4,1395.2,5297.4,1323.7z"/>
		<path id="node28_2_" class="st2" d="M8390.4,1348.6c-28.3-10-99.8-73.2-99.8-88.1c0-16.6,94.8-66.5,128-66.5
			c28.3,0,138,84.8,138,108.1c0,11.6-108.1,58.2-128,56.5C8422,1358.6,8403.7,1353.6,8390.4,1348.6z"/>
		<path id="node29_2_" class="st2" d="M4732,1298.8c0-56.5,13.3-76.5,63.2-103.1c44.9-23.3,44.9-23.3,59.9,24.9
			c13.3,41.6-29.9,98.1-84.8,114.7C4737,1343.7,4732,1340.3,4732,1298.8z"/>
		<path id="node30_2_" class="st2" d="M5041.3,1275.5c-51.6-61.5-54.9-98.1-10-98.1c46.6,0,99.8,58.2,99.8,108.1
			C5131.1,1342,5092.9,1338.7,5041.3,1275.5z"/>
		<path id="node31_2_" class="st2" d="M7974.7,1243.9c0-79.8,99.8-153,123.1-89.8c20,49.9,10,73.2-43.2,106.4
			C7983,1303.7,7974.7,1302.1,7974.7,1243.9z"/>
		<path id="node32_2_" class="st2" d="M6506.3,1223.9c-51.6-51.6-51.6-51.6-16.6-68.2c53.2-23.3,111.4-1.7,139.7,49.9
			c13.3,26.6,29.9,51.6,39.9,58.2c8.3,6.7-11.6,13.3-46.6,13.3C6572.9,1277.1,6546.2,1265.5,6506.3,1223.9z"/>
		<path id="node33_2_" class="st2" d="M6697.6,1194c-23.3-23.3-36.6-53.2-36.6-91.5c0-66.5,18.3-73.2,66.5-24.9
			c34.9,34.9,39.9,69.8,20,121.4C6735.8,1227.3,6732.5,1225.6,6697.6,1194z"/>
		<path id="node34_2_" class="st2" d="M5536.9,1175.7c-26.6-43.2,91.5-66.5,124.7-24.9c15,18.3,13.3,24.9-8.3,33.3
			C5611.7,1200.6,5550.2,1195.7,5536.9,1175.7z"/>
		<path id="node35_2_" class="st2" d="M6298.5,1180.7c-26.6-16.6-10-64.9,29.9-86.5c15-8.3,48.2-10,73.2-3.3l44.9,11.6l-41.6,46.6
			C6361.7,1195.7,6335.1,1204,6298.5,1180.7z"/>
		<path id="node36_2_" class="st2" d="M5003.1,1051c13.3-83.1,38.2-106.4,113.1-106.4c63.2,0,64.9,1.7,54.9,46.6
			c-13.3,59.9-81.5,119.7-134.7,119.7C4996.4,1110.8,4994.8,1107.5,5003.1,1051z"/>
		<path id="node37_2_" class="st2" d="M8269,1070.9c11.6-61.5,76.5-113.1,131.4-106.4c64.9,6.7,66.5,34.9,6.7,94.8
			C8340.5,1125.8,8257.4,1132.5,8269,1070.9z"/>
		<path id="node38_2_" class="st2" d="M6145.5,1042.7c0-61.5,39.9-98.1,111.4-98.1c46.6,0,56.5,5,48.2,26.6c-5,15-10,36.6-10,48.2
			c0,28.3-54.9,59.9-109.8,66.5C6152.1,1089.2,6145.5,1082.6,6145.5,1042.7z"/>
		<path id="node39_2_" class="st2" d="M7073.4,1056c-49.9-46.6-66.5-144.7-24.9-144.7c53.2,0,79.8,41.6,74.8,114.7l-5,71.5
			L7073.4,1056z"/>
		<path id="node40_2_" class="st2" d="M4321.3,1007.7c-48.2-23.3-48.2-28.3,10-93.1c54.9-59.9,113.1-68.2,176.3-26.6
			c36.6,24.9,38.2,29.9,15,63.2C4479.3,1019.4,4394.4,1042.7,4321.3,1007.7z"/>
		<path id="node41_2_" class="st2" d="M6511.3,1019.4c0-3.3,8.3-26.6,20-49.9c21.6-48.2,71.5-66.5,129.7-44.9l39.9,15l-44.9,43.2
			c-28.3,29.9-61.5,44.9-94.8,44.9C6534.6,1027.7,6511.3,1024.4,6511.3,1019.4z"/>
		<path id="node42_2_" class="st2" d="M7213.1,1007.7c-24.9-24.9-26.6-156.3-1.7-171.3c29.9-20,81.5,43.2,81.5,99.8
			c0,46.6-24.9,91.5-49.9,91.5C7238,1027.7,7224.7,1019.4,7213.1,1007.7z"/>
		<path id="node43_2_" class="st2" d="M6012.5,964.5c0-28.3,16.6-63.2,39.9-84.8l39.9-38.2l11.6,53.2c8.3,38.2,3.3,59.9-18.3,84.8
			C6044.1,1026,6012.5,1019.4,6012.5,964.5z"/>
		<path id="node44_2_" class="st2" d="M4781.9,949.5c0-43.2,20-66.5,71.5-86.5c41.6-16.6,44.9-15,44.9,23.3
			c0,39.9-53.2,91.5-94.8,91.5C4791.9,977.8,4781.9,964.5,4781.9,949.5z"/>
		<path id="node45_2_" class="st2" d="M8141,898c0-74.8,16.6-93.1,104.8-116.4c59.9-16.6,61.5-16.6,61.5,29.9
			c0,58.2-58.2,128-119.7,143C8142.6,964.5,8141,962.9,8141,898z"/>
		<path id="node46_2_" class="st2" d="M5505.3,913c-46.6-20-86.5-68.2-99.8-121.4c-10-41.6-6.7-46.6,28.3-46.6
			c59.9,0,93.1,33.3,111.4,113.1C5560.1,931.3,5558.5,934.6,5505.3,913z"/>
		<path id="node47_2_" class="st2" d="M5096.2,844.8c-29.9-18.3-74.8-111.4-59.9-128c20-18.3,93.1,11.6,103.1,43.2
			C5154.4,809.9,5127.8,861.4,5096.2,844.8z"/>
		<path id="node48_2_" class="st2" d="M6378.3,828.2c-43.2-43.2-41.6-59.9,5-73.2c84.8-21.6,124.7-11.6,141.3,38.2
			c15,43.2,13.3,49.9-18.3,58.2C6443.1,868.1,6413.2,863.1,6378.3,828.2z"/>
		<path id="node49_2_" class="st2" d="M5234.2,811.5c-24.9-39.9-26.6-108.1-1.7-151.3c16.6-33.3,18.3-33.3,49.9-5
			c36.6,31.6,39.9,84.8,11.6,148C5270.8,853.1,5262.5,854.8,5234.2,811.5z"/>
		<path id="node50_2_" class="st2" d="M4590.7,819.8c-8.3-3.3-36.6-10-61.5-15c-36.6-8.3-113.1-96.4-113.1-133c0-5,29.9-10,66.5-10
			c49.9,0,71.5,8.3,89.8,38.2c20,33.3,51.6,129.7,39.9,126.4C4609,826.5,4600.6,823.2,4590.7,819.8z"/>
		<path id="node51_2_" class="st2" d="M6624.4,778.3c-34.9-26.6-46.6-49.9-46.6-93.1c0-64.9,28.3-74.8,73.2-24.9
			c20,21.6,26.6,53.2,23.3,93.1l-5,61.5L6624.4,778.3z"/>
		<path id="node52_2_" class="st2" d="M5591.7,760c-24.9-15-78.2-98.1-78.2-123.1c0-24.9,103.1-3.3,133,28.3
			C5714.8,738.4,5674.9,808.2,5591.7,760z"/>
		<path id="node53_2_" class="st2" d="M8124.4,670.2l-56.5-58.2h83.1c66.5,0,91.5,8.3,121.4,39.9c38.2,39.9,38.2,39.9,5,58.2
			C8220.8,740,8182.6,731.7,8124.4,670.2z"/>
		<path id="node54_2_" class="st2" d="M4668.8,686.8c-46.6-20-86.5-78.2-86.5-126.4c0-8.3,21.6-15,49.9-15
			c58.2,0,104.8,58.2,96.4,123.1C4723.7,708.4,4722,708.4,4668.8,686.8z"/>
		<path id="node55_2_" class="st2" d="M7783.5,615.3c-51.6-10-91.5-53.2-91.5-99.8c0-29.9,6.7-38.2,26.6-29.9c15,5,36.6,10,49.9,10
			c26.6,0,106.4,73.2,106.4,96.4C7874.9,612,7826.7,623.6,7783.5,615.3z"/>
		<path id="node56_2_" class="st2" d="M8347.2,615.3c-21.6-13.3-56.5-76.5-56.5-101.4c0-33.3,68.2-18.3,108.1,23.3
			c51.5,51.6,53.2,91.5,5,91.5C8382.1,628.6,8357.2,622,8347.2,615.3z"/>
		<path id="node57_2_" class="st2" d="M4775.2,563.8c-23.3-26.6-28.3-48.2-20-94.8c11.6-58.2,13.3-58.2,44.9-29.9
			c31.6,28.3,38.2,74.8,16.6,128C4806.8,595.3,4803.5,595.3,4775.2,563.8z"/>
		<path id="node58_2_" class="st2" d="M8490.2,483.9l-54.9-44.9l48.2-38.2c61.5-48.2,98.1-48.2,168,5c66.5,49.9,68.2,74.8,10,103.1
			C8593.3,538.8,8548.4,533.8,8490.2,483.9z"/>
		<path id="node59_2_" class="st2" d="M4599,447.3c0-41.6,43.2-101.4,73.2-101.4c6.7,0,10,26.6,6.7,59.9
			c-3.3,44.9-15,64.9-41.6,74.8C4604,492.2,4599,488.9,4599,447.3z"/>
		<path id="node60_2_" class="st2" d="M7953.1,477.3c-26.6-6.7-58.2-21.6-71.5-33.3c-26.6-21.6-31.6-131.4-6.7-131.4
			c41.6,0,116.4,53.2,126.4,89.8C8017.9,472.3,8004.6,492.2,7953.1,477.3z"/>
		<path id="node61_2_" class="st2" d="M8086.1,362.5c-53.2-61.5-56.5-98.1-13.3-151.3l31.6-38.2l34.9,56.5
			c39.9,66.5,44.9,114.7,13.3,156.3C8131,414.1,8127.7,412.4,8086.1,362.5z"/>
		<path id="node62_2_" class="st2" d="M4427.7,369.2c-20-20,74.8-123.1,113.1-123.1c78.2,0,89.8,94.8,15,123.1
			C4522.5,382.5,4441,382.5,4427.7,369.2z"/>
		<path id="node63_2_" class="st2" d="M4798.5,261.1c-10-18.3-13.3-54.9-8.3-81.5c10-43.2,15-46.6,43.2-28.3
			c41.6,26.6,54.9,68.2,31.6,111.4S4821.8,304.3,4798.5,261.1z"/>
		<path id="node64_2_" class="st2" d="M7281.3,267.8c-11.6-3.3-21.6-33.3-21.6-64.9c0-44.9,6.7-56.5,33.3-56.5
			c18.3,0,48.2,15,66.5,33.3c49.9,49.9,43.2,99.8-11.6,98.1C7321.2,277.7,7291.2,272.7,7281.3,267.8z"/>
		<path id="node65_2_" class="st2" d="M7593.9,229.5c-44.9-73.2-43.2-84.8,6.7-133c44.9-41.6,44.9-41.6,73.2,11.6
			c26.6,51.6,23.3,94.8-13.3,139.7l-31.6,38.2L7593.9,229.5z"/>
		<path id="node66_2_" class="st2" d="M7011.9,214.5c-18.3-11.6-18.3-21.6,0-59.9c33.3-68.2,69.8-84.8,123.1-61.5
			c43.2,20,43.2,28.3-3.3,98.1C7113.3,217.9,7040.1,232.8,7011.9,214.5z"/>
		<path id="node67_2_" class="st2" d="M4924.9,108.1c-20-76.5-10-109.8,38.2-136.4c48.2-23.3,49.9-23.3,59.9,24.9
			c11.6,54.9-10,108.1-56.5,133C4941.5,143,4933.2,138,4924.9,108.1z"/>
		<path id="node68_2_" class="st2" d="M4682.1,61.6c0-76.5,26.6-114.7,83.1-114.7c43.2,0,49.9,6.7,49.9,46.6
			c0,54.9-13.3,74.8-61.5,101.4C4697.1,123.1,4682.1,116.4,4682.1,61.6z"/>
		<path id="node69_2_" class="st2" d="M7778.5,78.2c-86.5-18.3-99.8-39.9-53.2-89.8c48.2-51.6,94.8-53.2,163-1.7
			c41.6,29.9,48.2,43.2,33.3,54.9C7873.3,79.8,7830,89.8,7778.5,78.2z"/>
		<path id="node70_2_" class="st2" d="M4539.1,59.9c-43.2-20-73.2-81.5-73.2-148c0-44.9,5-49.9,38.2-38.2
			c68.2,20,94.8,58.2,94.8,134.7S4594,88.2,4539.1,59.9z"/>
		<path id="node71_2_" class="st2" d="M7268,46.6c-29.9-33.3-28.3-33.3,26.6-33.3s98.1,23.3,98.1,53.2
			C7392.7,93.1,7296.2,78.2,7268,46.6z"/>
		<path id="node72_2_" class="st2" d="M8137.7-63.2c-61.5-33.3-78.2-69.8-59.9-136.4c11.6-46.6,20-53.2,51.5-44.9
			c59.9,18.3,111.4,86.5,111.4,151.3S8214.1-21.6,8137.7-63.2z"/>
		<path id="node73_2_" class="st2" d="M7625.5-103.1c0-58.2,51.6-116.4,101.4-116.4c29.9,0,33.3,6.7,24.9,46.6
			C7740.2-128,7672-53.2,7640.4-53.2C7632.1-53.2,7625.5-74.8,7625.5-103.1z"/>
		<path id="node74_2_" class="st2" d="M5252.5-164.6c-11.6-29.9,24.9-106.4,56.5-116.4c34.9-11.6,44.9,76.5,13.3,111.4
			C5285.8-129.7,5265.8-128,5252.5-164.6z"/>
		<path id="node75_2_" class="st2" d="M4514.2-201.2c-28.3-28.3-48.2-66.5-48.2-91.5c0-38.2,6.7-43.2,58.2-43.2
			c76.5,0,141.3,61.5,141.3,133c0,44.9-5,49.9-51.6,49.9C4580.7-153,4547.4-169.6,4514.2-201.2z"/>
		<path id="node76_2_" class="st2" d="M4773.6-217.8c-53.2-21.6-88.1-71.5-99.8-141.3l-13.3-63.2l56.5,11.6
			c81.5,16.6,111.4,49.9,118.1,134.7C4840.1-201.2,4833.5-194.5,4773.6-217.8z"/>
		<path id="node77_2_" class="st2" d="M8235.8-262.7c-56.5-29.9-53.2-64.9,8.3-111.4c49.9-38.2,101.4-31.6,169.6,23.3l43.2,34.9
			l-39.9,31.6C8360.5-239.4,8290.6-231.1,8235.8-262.7z"/>
		<path id="node78_2_" class="st2" d="M5147.7-302.6c0-63.2,81.5-159.6,121.4-144.7c38.2,15,36.6,98.1-1.7,133
			c-15,13.3-48.2,33.3-74.8,43.2C5149.4-254.4,5147.7-256.1,5147.7-302.6z"/>
		<path id="node79_2_" class="st2" d="M8057.8-425.7c0-58.2,44.9-109.8,94.8-109.8c36.6,0,23.3,83.1-20,124.7
			C8077.8-354.2,8057.8-359.2,8057.8-425.7z"/>
		<path id="node80_2_" class="st2" d="M5053-432.3c-8.3-24.9-11.6-58.2-8.3-74.8c6.7-33.3,96.4-84.8,119.7-69.8
			c41.6,26.6,1.7,144.7-58.2,171.3C5071.2-389.1,5066.3-392.4,5053-432.3z"/>
		<path id="node81_2_" class="st2" d="M7901.5-429c-23.3-61.5-10-123.1,33.3-149.7c36.6-24.9,44.9-24.9,58.2-5
			c8.3,13.3,11.6,38.2,6.7,56.5c-3.3,18.3-8.3,41.6-8.3,51.6c0,11.6-18.3,31.6-39.9,44.9C7914.8-405.7,7909.8-405.7,7901.5-429z"/>
		<path id="node82_2_" class="st2" d="M4880-507.2c-43.2-58.2-51.6-108.1-31.6-169.6l20-58.2l48.2,34.9
			c56.5,39.9,61.5,94.8,18.3,176.3l-28.3,51.6L4880-507.2z"/>
		<path id="node83_2_" class="st2" d="M8036.2-663.5c-69.8-28.3-89.8-73.2-63.2-143c21.6-58.2,58.2-56.5,119.7,3.3
			c34.9,36.6,48.2,64.9,48.2,108.1C8141-628.6,8129.3-623.6,8036.2-663.5z"/>
		<path id="node84_2_" class="st2" d="M7121.6-698.4c-46.6-51.6-36.6-128,23.3-171.3c43.2-29.9,54.9-31.6,66.5-13.3
			c28.3,46.6,16.6,141.3-23.3,177.9C7149.9-668.5,7148.2-668.5,7121.6-698.4z"/>
		<path id="node85_2_" class="st2" d="M7332.8-763.3c-10-71.5-6.7-81.5,33.3-116.4c63.2-53.2,109.8-51.6,109.8,8.3
			c0,54.9-51.6,144.7-98.1,168C7347.8-686.8,7344.4-691.7,7332.8-763.3z"/>
		<path id="node86_2_" class="st2" d="M7663.7-788.2c-74.8-20-109.8-76.5-94.8-153c11.6-64.9,18.3-68.2,78.2-41.6
			c54.9,24.9,81.5,79.8,74.8,149.7C7716.9-774.9,7715.3-774.9,7663.7-788.2z"/>
		<path id="node87_2_" class="st2" d="M8107.7-878c-23.3-16.6-44.9-31.6-48.2-34.9c-5-3.3,10-23.3,31.6-46.6
			c49.9-53.2,124.7-54.9,187.9-3.3c46.6,36.6,46.6,38.2,15,66.5C8245.7-851.4,8157.6-843.1,8107.7-878z"/>
		<path id="node88_2_" class="st2" d="M7984.7-1041c-15-23.3-26.6-54.9-26.6-71.5c0-39.9,46.6-104.8,73.2-104.8
			c51.5,0,59.9,146.3,11.6,189.6C8014.6-1001,8011.3-1002.7,7984.7-1041z"/>
	</g>
</g>
</svg>
