<?xml version="1.0" encoding="UTF-8" standalone="no"?>
<!-- Created with Inkscape (http://www.inkscape.org/) -->

<svg
   xmlns:dc="http://purl.org/dc/elements/1.1/"
   xmlns:cc="http://creativecommons.org/ns#"
   xmlns:rdf="http://www.w3.org/1999/02/22-rdf-syntax-ns#"
   xmlns:svg="http://www.w3.org/2000/svg"
   xmlns="http://www.w3.org/2000/svg"
   xmlns:sodipodi="http://sodipodi.sourceforge.net/DTD/sodipodi-0.dtd"
   xmlns:inkscape="http://www.inkscape.org/namespaces/inkscape"
   width="95.955566mm"
   height="63.591206mm"
   viewBox="0 0 340.00004 225.32317"
   id="svg2"
   version="1.1"
   inkscape:version="0.91 r13725"
   sodipodi:docname="logo7.svg">
  <defs
     id="defs4" />
  <sodipodi:namedview
     id="base"
     pagecolor="#ffffff"
     bordercolor="#666666"
     borderopacity="1.0"
     inkscape:pageopacity="0.0"
     inkscape:pageshadow="2"
     inkscape:zoom="1.4"
     inkscape:cx="-104.1617"
     inkscape:cy="238.55671"
     inkscape:document-units="px"
     inkscape:current-layer="layer1"
     showgrid="false"
     fit-margin-top="0"
     fit-margin-left="0"
     fit-margin-right="0"
     fit-margin-bottom="0"
     inkscape:window-width="1920"
     inkscape:window-height="1001"
     inkscape:window-x="-9"
     inkscape:window-y="-9"
     inkscape:window-maximized="1" />
  <metadata
     id="metadata7">
    <rdf:RDF>
      <cc:Work
         rdf:about="">
        <dc:format>image/svg+xml</dc:format>
        <dc:type
           rdf:resource="http://purl.org/dc/dcmitype/StillImage" />
        <dc:title></dc:title>
      </cc:Work>
    </rdf:RDF>
  </metadata>
  <g
     inkscape:label="Layer 1"
     inkscape:groupmode="layer"
     id="layer1"
     transform="translate(-159.64087,-340.45913)">
    <path
       style="fill:#ffffff"
       d="m 287.85712,556.81942 c -15.12719,-3.15041 -23.90329,-7.32189 -31.20074,-14.8304 -2.92121,-3.00571 -6.05256,-7.32546 -6.95853,-9.59945 -0.90596,-2.27397 -1.73037,-8.19645 -1.83202,-8.35945 -0.10163,-0.16301 -3.17205,2.86717 -6.38663,5.86072 -10.69391,9.95864 -25.63836,14.8127 -41.39561,7.68867 -17.23909,-7.794 -31.87049,-10.65037 -37.93365,-7.40546 -7.5744,4.05369 3.36437,-10.94956 14.67258,-20.12441 20.58622,-16.70252 44.73822,-18.40598 61.36355,-8.66288 3.08397,1.80732 8.79906,5.55187 9.20814,5.70217 0.40906,0.1503 1.08682,-8.08629 2.37912,-11.75592 2.97835,-8.45733 7.38971,-15.98619 14.4344,-24.63517 l 8.41029,-8.24634 -4.60893,-0.71428 c -1.92268,-0.29798 -7.23548,-0.52892 -10.88222,-1.61189 -10.16727,-3.01935 -17.74951,-8.60114 -27.17264,-27.74985 -5.86252,-11.9132 -9.10795,-16.98682 -12.99324,-20.3125 -2.84838,-2.4381 -5.92137,-4.43291 -6.82887,-4.43291 -2.38745,0 -2.02639,-2.08309 0.5375,-3.10104 1.20312,-0.47767 7.63768,-1.18026 14.29902,-1.56131 20.29885,-1.16115 31.92885,3.27666 44.2552,13.53476 8.20264,6.8263 12.81942,13.79206 15.03855,22.69009 0.81444,3.26563 -0.0368,12.00893 0.29098,12.00893 0.32775,0 11.78253,-9.49293 18.03446,-13.67477 6.25191,-4.18184 15.22844,-9.54787 19.94782,-11.92452 l 15.17889,-7.03225 -5.05972,-2.12041 -5.71686,-2.39579 c -7.35009,-3.08024 -11.48352,-9.57217 -13.42138,-16.24512 -0.69879,-2.40625 -3.77366,-11.21709 -3.77749,-20.88919 -0.007,-19.04361 -1.86732,-28.64973 -6.43002,-33.21243 -1.3944,-1.3944 -2.24284,-2.82773 -1.8854,-3.18517 0.35743,-0.35744 5.1531,0.84982 10.65702,2.68279 29.60918,9.86076 46.52656,34.71694 44.24748,58.7365 -0.31276,3.29618 -3.98767,8.42077 -2.25076,9.42213 1.79983,1.03763 9.04186,-2.11502 10.36194,-2.49873 23.10159,-6.71491 44.76531,-4.85197 49.07764,3.20569 1.62068,3.02826 2.69742,7.30896 3.58668,7.25952 6.16671,1.16451 8.54572,2.94442 -1.24935,5.7261 l -1.97475,5.19812 c -1.94602,5.12249 -7.21638,10.66696 -11.89788,13.1127 -4.63844,2.42323 -12.82935,2.25505 -15.40061,-0.31621 -2.65495,-2.65495 -1.62543,-8.51696 2.23277,-12.71323 3.31499,-3.60546 14.1112,-8.92767 18.14499,-8.94495 7.35064,-0.0315 3.3349,-9.08607 -5.03589,-11.3548 -16.91087,-4.58335 -53.1563,7.983 -81.66878,28.3147 -24.01217,17.1226 -41.78479,36.68674 -50.44983,55.53528 -3.48191,7.57399 -4.4045,11.29787 -4.83604,19.51972 -0.64697,12.32638 0.79893,17.20673 7.27889,24.56834 11.26449,12.79713 36.52285,16.66034 64.98493,9.9393 2.46351,-2.70668 5.49646,7.06512 2.28541,4.97728 -13.16407,4.39512 -40.63488,6.22351 -51.66047,3.92732 z m 111.6123,-117.80634 c 5.49187,-2.80293 8.362,-5.7588 10.14476,-10.4478 1.12121,-2.94902 0.99135,-3.43521 -0.91758,-3.43521 -3.91718,0 -15.3704,6.47458 -16.72938,9.45721 -1.43005,3.13863 -0.60943,6.79279 1.52546,6.79279 0.73647,0 3.426,-1.06515 5.97674,-2.36699 z"
       id="path3347"
       inkscape:connector-curvature="0"
       sodipodi:nodetypes="csscssssscsscssssssssssssccsscsssssssccssssssssssccccssssss" />
    <path
       style="fill:#ffffff"
       d="m 444.35918,442.74817 c -9.07183,-1.98491 -24.17993,-11.85921 -25.47461,-18.50124 -0.97869,-5.5512 -0.62136,-3.00682 -0.97869,-5.5512 -0.39017,-8.89657 4.37355,-16.41671 10.07261,-21.9127 2.5155,-3.59907 6.51313,-7.32847 6.51313,-8.35089 0,-0.98756 0.58821,-1.67056 1.05411,-1.67056 1.18925,0 5.01803,8.33926 5.57613,12.14506 1.07582,7.33632 0.92994,7.15651 4.66088,5.74465 4.01081,-1.51778 9.5303,-1.6014 19.2529,-0.29173 6.03657,0.81315 7.95733,0.74968 11.63217,-0.38436 2.4209,-0.74709 4.40166,-1.1723 4.40166,-0.9449 0,1.94085 -6.09446,10.43929 -10.49739,14.63812 -6.01551,5.73665 -10.36306,8.52444 -15.82772,10.14921 -1.9925,0.59242 -3.62272,1.59997 -3.62272,2.23901 0,2.24999 4.36228,8.52886 7.19442,10.35533 l 2.86524,1.84782 -2.37317,0.59947 c -3.09923,0.78287 -9.01801,0.73737 -14.44891,-0.11109 z"
       id="path3386"
       inkscape:connector-curvature="0"
       sodipodi:nodetypes="ccccssssssssssscscc" />
    <path
       style="fill:#ffffff"
       d="m 367.67102,559.29141 c -8.96802,0.64693 -26.12278,-3.83641 -29.55125,-9.12716 -2.77087,-4.44835 -1.58434,-2.38604 -2.77087,-4.44835 -3.36299,-7.43138 -1.547,-15.01971 1.80842,-21.13443 1.08463,-3.69217 3.48081,-7.87489 3.13533,-8.74043 -0.33374,-0.83601 -0.0264,-1.56513 0.39964,-1.68465 1.08772,-0.30513 7.40743,5.77235 9.20386,8.85103 3.4629,5.93464 3.26872,5.81985 6.20407,3.66748 3.15552,-2.31383 8.17553,-3.80059 17.51061,-5.18612 5.79597,-0.86024 7.53129,-1.40672 10.5092,-3.30951 1.96179,-1.25351 3.62975,-2.12163 3.70659,-1.92911 0.65578,1.64306 -2.04673,10.40097 -4.65499,15.08504 -3.56355,6.39966 -6.59793,9.87502 -11.04705,12.65238 -1.6222,1.01267 -2.7728,2.28385 -2.55687,2.82484 0.76028,1.90475 6.87173,6.10108 10.07923,6.92074 l 3.245,0.82924 -1.968,1.11629 c -2.57011,1.45783 -7.99896,2.93772 -13.25288,3.6127 z"
       id="path3386-9"
       inkscape:connector-curvature="0"
       sodipodi:nodetypes="ccccssssssssssscscc" />
  </g>
</svg>
