<!--?xml version="1.0" standalone="no"?-->

<svg version="1.0" xmlns="http://www.w3.org/2000/svg" width="300.000000pt" height="300.000000pt" viewBox="0 0 300.000000 300.000000" preserveAspectRatio="xMidYMid meet">
<g transform="translate(0.000000,300.000000) scale(0.100000,-0.100000)" fill="#050505" stroke="none">
<path fill="#669C32" class="node" id="node1" d="M2112 2888 c-39 -13 -118 -81 -127 -108 -5 -16 -15 -20 -54 -20 -33
0 -66 -9 -104 -28 -36 -18 -60 -25 -66 -19 -12 12 -139 21 -184 13 -53 -10
-122 -61 -158 -118 -29 -44 -33 -61 -37 -132 -3 -60 0 -91 12 -120 9 -21 16
-40 16 -42 0 -2 -15 -11 -32 -20 -106 -53 -152 -156 -113 -251 29 -69 91 -116
176 -134 53 -12 54 -12 64 -71 16 -101 150 -168 274 -138 50 12 51 12 92 -24
66 -56 182 -70 260 -30 15 7 41 25 58 40 30 25 32 26 57 9 42 -28 134 -55 184
-55 54 0 149 30 200 64 55 36 90 95 97 159 5 51 9 57 38 71 80 38 133 137 121
225 -11 82 -53 133 -145 179 -23 11 -38 28 -46 51 -6 18 -25 50 -41 70 -28 33
-31 41 -26 91 7 92 -41 152 -141 175 -41 9 -51 17 -80 60 -46 71 -109 107
-194 111 -38 2 -83 -2 -101 -8z"></path>
<path fill="#669C32" class="node" id="node2" d="M2190 1578 c-11 -18 -33 -66 -48 -105 -15 -40 -30 -73 -34 -73 -3 0
-11 13 -16 29 -5 15 -22 47 -36 70 -22 35 -31 41 -61 41 -19 0 -46 5 -60 12
-14 6 -27 9 -30 6 -3 -2 4 -31 15 -62 28 -83 43 -212 36 -324 -3 -53 -9 -221
-12 -373 l-6 -277 40 -7 c22 -3 75 -1 118 7 44 7 127 13 187 13 59 0 107 1
107 2 0 1 -12 24 -28 50 -91 159 -129 362 -118 628 4 83 15 197 25 255 20 114
17 123 -31 135 -23 6 -30 2 -48 -27z"></path>
<path fill="#669C32" class="node" id="node3" d="M155 1149 c-46 -26 -45 -17 -45 -546 l0 -503 103 0 102 0 0 87 0 88
83 3 82 3 0 -91 0 -90 105 0 105 0 0 90 0 90 85 0 85 0 0 -90 0 -90 100 0 99
0 3 88 3 87 83 3 82 3 0 -91 0 -90 105 0 105 0 0 90 0 90 80 0 80 0 0 -90 0
-90 105 0 105 0 0 505 c0 489 -1 506 -20 525 -39 39 -124 39 -166 -1 -23 -21
-24 -29 -24 -151 l0 -128 -80 0 -80 0 0 124 c0 115 -2 127 -22 151 -39 44
-121 47 -166 5 -21 -19 -22 -29 -22 -151 l0 -130 -82 3 -83 3 -2 115 c-2 63
-5 125 -8 137 -12 49 -105 68 -162 33 l-32 -19 -3 -133 -3 -133 -82 -3 -83 -3
0 128 c0 70 -4 133 -8 139 -34 49 -123 59 -171 18 l-31 -26 0 -129 0 -130 -82
3 -83 3 -3 131 c-2 116 -5 134 -22 149 -24 22 -107 30 -135 14z m325 -579 l0
-191 -82 3 -83 3 -3 165 c-1 91 0 175 3 188 5 20 11 22 85 22 l80 0 0 -190z
m375 0 l0 -185 -82 -3 -83 -3 0 191 0 191 83 -3 82 -3 0 -185z m375 0 l0 -191
-82 3 -83 3 -3 165 c-1 91 0 175 3 188 5 20 11 22 85 22 l80 0 0 -190z m370 0
l0 -190 -80 0 -80 0 0 190 0 190 80 0 80 0 0 -190z"></path>
</g>

</svg>