<!--?xml version="1.0" standalone="no"?-->

<svg version="1.0" xmlns="http://www.w3.org/2000/svg" width="300.000000pt" height="300.000000pt" viewBox="0 0 300.000000 300.000000" preserveAspectRatio="xMidYMid meet">
<g transform="translate(0.000000,300.000000) scale(0.100000,-0.100000)" fill="#030303" stroke="none">
<path fill="#669C32" class="node" id="node1" d="M1384 2925 c-161 -35 -264 -129 -324 -294 l-16 -46 -74 -7 c-95 -10
-152 -29 -216 -73 -100 -69 -168 -186 -179 -309 -7 -71 -8 -74 -54 -113 -96
-83 -141 -183 -141 -312 0 -119 28 -192 112 -288 27 -31 38 -53 38 -76 0 -38
31 -151 53 -193 43 -82 147 -166 244 -197 73 -24 185 -22 261 4 l62 21 55 -36
c67 -45 133 -75 163 -76 14 0 26 -8 31 -23 5 -13 12 -110 16 -217 5 -154 3
-214 -9 -285 -27 -154 -45 -249 -56 -279 -5 -16 -10 -40 -10 -52 l0 -24 240 0
c236 0 240 0 240 21 0 11 -14 89 -32 172 -35 166 -42 325 -20 422 6 28 14 61
17 75 2 14 45 67 93 119 l89 94 26 -17 c14 -10 54 -26 89 -37 226 -68 459 57
524 283 18 60 26 75 50 87 96 47 188 149 222 245 21 61 26 148 13 218 -12 59
-61 165 -84 179 -6 5 -7 21 -1 45 4 22 8 82 9 134 0 86 -3 101 -32 162 -57
121 -156 205 -276 234 -55 14 -68 21 -75 43 -15 41 -74 117 -117 151 -61 49
-123 76 -202 90 -81 13 -151 4 -237 -33 -47 -20 -48 -20 -59 -1 -20 36 -101
116 -142 139 -42 25 -175 66 -210 64 -11 0 -47 -7 -81 -14z m420 -1735 c11
-41 35 -92 77 -158 13 -21 12 -25 -11 -43 -46 -36 -125 -79 -147 -79 -35 0
-46 34 -39 117 8 99 36 189 61 202 34 17 47 8 59 -39z m-353 24 c24 -8 73 -17
109 -19 l65 -4 -2 -43 c-3 -50 -28 -121 -48 -138 -29 -24 -59 -2 -111 77 -44
69 -74 124 -74 138 0 8 16 5 61 -11z m-78 -75 c20 -44 37 -85 37 -90 0 -24
-84 1 -141 42 l-30 21 24 27 c13 14 32 38 42 54 9 15 20 27 24 27 3 0 23 -36
44 -81z"></path>
</g>
</svg>